<?xml version="1.0" encoding="utf-8"?>
<!-- Generator: Adobe Illustrator 24.0.1, SVG Export Plug-In . SVG Version: 6.00 Build 0)  -->
<svg version="1.1" id="Layer_1" xmlns="http://www.w3.org/2000/svg" xmlns:xlink="http://www.w3.org/1999/xlink" x="0px" y="0px"
	 viewBox="0 0 660 310" style="enable-background:new 0 0 660 310;" xml:space="preserve">
<style type="text/css">
	.st0{fill:#CECECE;}
	.st1{fill:#1E1E1E;}
	.st2{fill:#108A10;}
	.st3{fill:#B81414;}
	.st4{fill:#1918E6;}
	.st5{opacity:0.15;enable-background:new    ;}
	.st6{fill:#E8E8E8;}
	.st7{fill:#B7B7B7;}
	.st8{opacity:0.6;fill:#FFFFFF;enable-background:new    ;}
	.st9{enable-background:new    ;}
</style>
<path class="st0" d="M534.5,162.2c0.8-2.3,0.9-4.7,0.3-7c3.3-5,5.1-11.4,3.7-15.4c-1.8-5.2-3.2-10.6-4-16c0.7-7.3,0.8-14.7,0.1-22
	c-0.1-1.9-0.7-3.7-1.8-5.3c2.6-4.8,4.9-12.4,1.5-17.3c-0.5-0.7-1.1-1.4-1.9-1.9c4.4-5.9,9.8-22.8-3-21.2c-15.1,2-30.4-0.8-45.4-3.1
	c-14.8-2.4-29.8-3.6-44.8-3.6c-30.3,0.3-60.4,4.2-90.6,5.8c-61.6,3.2-123.3,2.2-184.9,1.4c-34.1-0.4-68.1-0.8-102.2-0.3
	c-2.8-0.2-5.7-0.5-8.5-0.8c-10.9-1.2-22.3,23.1-12.3,27c-3.2,3.9-5.1,8.7-5.3,13.7c-0.3,6.2,2.8,9.7,7.2,11.7
	c-3.2,3.2-5.3,7.3-6.1,11.7c-2.5,15.8-1.9,31.9,1.7,47.5c0.6,2.5,2.7,4.4,5.3,4.8L45,172c-4,3.9-7.3,9-7.7,14.8
	c-0.3,3.9,0.8,8.8,5.5,9.4c29.5,3.4,59.2,2.5,88.8,1.8c32.4-0.7,64.8-1.9,97.3-2.3c31.7-0.4,63.4,0.1,95.1,2.5
	c16.3,1.3,32.5,2.5,48.9,2.5c15.7,0,31.3-0.5,47-1.1c17.6-0.7,35.3-1.5,52.9-1.3s35.1,2.4,52.5-1.4c9-1.9,14.5-14.1,13-22.4
	C537.5,170.3,536.2,166.1,534.5,162.2z M345.7,86.2h-10.6l2.7-0.1c16.8-0.7,33.7-1,50.5-0.2c6,0.3,12,0.8,18,1.3
	C386.1,86.6,365.9,86.3,345.7,86.2L345.7,86.2z M145.3,173h0.3C145.4,173,145.3,173,145.3,173L145.3,173z"/>
<path class="st1" d="M535.5,169.8c-0.1-11.3-0.3-22.6-0.5-33.9c-0.3-21.3-1-42.7-0.9-64.1c0-5.8,1.5-13.4-5-16.3
	c-4.3-1.9-9.8-1.1-14.4-1.2c-3-0.1-6-0.2-9-0.2h-354C124.9,54,98,54.1,71.1,54c-6.2,0-12.4-0.2-18.6,0.2c-3.4,0.2-7.4,0.4-10.1,2.8
	c-3.4,3-2.3,7.1-2.4,11.2c0,0.1,0,0.1,0,0.2c-0.1,19.1-0.2,38.2-0.4,57.3l-0.3,38c0,7.6-0.8,16,0.5,23.5c1.5,8.4,12.3,8.3,19,8.7
	c8.5,0.5,17.2-0.1,25.8,0.2c2.4,0.1,4.9,0,7.3,0H134c49.9,0,99.9-0.1,149.8-0.3l155.6-0.4l49.4-0.1h12.1c8.8,0,18.2,0.8,26.7-1
	s7.6-10.1,7.8-17.5C535.6,174.2,535.5,172,535.5,169.8L535.5,169.8z M533.3,176.5c-0.1,2-0.3,4-0.4,6c-0.3,4.5-1,8.1-5.7,9.2
	c-6.4,1.5-13.7,0.7-20.2,0.9c-2.8,0.1-5.5,0.1-8.3,0.1l-36.5,0.1l-140.8,0.4l-155.9,0.4c-26.7,0.1-53.7,1.2-80.4,0.3
	c-5.4-0.2-10.6-0.4-16-0.1c-6.2,0.3-12.4,0.1-18.6-0.9c-3.4-0.6-7.1-1.4-8.4-5.1c-1.1-3.2-0.8-7.4-0.9-10.8c-0.1-5.7,0-11.3,0.1-17
	c0.1-25.2,0.2-50.4,0.3-75.5c0-5.4,0-10.8,0.1-16.1v-0.1c0.2-3.9-0.9-8.3,3-10.7c2.7-1.6,6.4-1.4,9.4-1.5c5.6-0.2,11.2-0.1,16.8,0
	h55.5h147h154.3c25.9,0,51.9-0.3,77.8,0c5.5,0.1,11,0.2,16.5,0.4c5.9,0.3,10.1,1.9,10.3,8.3c0.1,2.2-0.2,4.3-0.2,6.5V73
	c0.1,8.6,0.2,17.2,0.3,25.9l0.9,72.1C533.3,172.8,533.4,174.7,533.3,176.5z"/>
<path class="st2" d="M242.2,30.8c-22.4,0-44.8,0-67.1,0.1C139.4,31,103.7,31,67.9,31.1l-24.8,0.1c-0.4,0-0.8,0.4-0.8,0.8
	c0,5.5,0,11.1,0.2,16.6c0,0.4,0.3,0.6,0.7,0.6s0.6-0.3,0.6-0.6c0.1-3.9,0.1-7.8,0.1-11.7c0-1.3-0.1-2.7,0-4.1c2.8,0.2,5.7,0,8.5,0
	h44.4l117.1-0.1c9.4,0,18.9-0.1,28.4-0.1c0.5,0,0.9-0.4,0.9-0.9C243.1,31.2,242.7,30.8,242.2,30.8L242.2,30.8L242.2,30.8z
	 M32.3,192.8c-3.1-0.6-6.6-0.2-9.8-0.2c-1.7,0-4.3-0.5-5.9,0c-0.1,0-0.2,0-0.3,0c0-0.1,0-0.1,0-0.2c0.9-3.5,0-8.5,0-12.1
	c0-2.9,0.4-6.2-0.1-9.1c-0.1-0.5-0.6-0.7-1.1-0.6c-0.3,0.1-0.5,0.3-0.6,0.6c-0.6,3.4,0,7.3,0,10.8l0.1,11.4c0,0.5,0.4,0.9,0.9,0.9
	c5.4,0,11.5,0.7,16.8-0.3c0.3-0.1,0.5-0.5,0.4-0.8C32.6,193.1,32.4,192.9,32.3,192.8L32.3,192.8z M32.3,57.2
	c-5.3-1-11.4-0.3-16.8-0.3c-0.5,0-0.9,0.4-0.9,0.9l-0.1,11.4c0,3.5-0.6,7.4,0,10.8c0.1,0.5,0.6,0.7,1.1,0.6c0.3-0.1,0.5-0.3,0.6-0.6
	c0.5-2.8,0.1-5.9,0.1-8.6v-7.2c0-1.6,0.4-3.8,0-5.3c0-0.1,0-0.1,0-0.2c1.4,0.6,4.3,0,5.8,0c3.3,0,6.9,0.4,10.2-0.2
	c0.3-0.1,0.6-0.4,0.5-0.8C32.6,57.4,32.5,57.2,32.3,57.2z M16,58.5C15.8,58.5,15.5,58.3,16,58.5z M16.3,58.3c0-0.2,0-0.3,0-0.5
	C16.4,58,16.4,58.1,16.3,58.3z M530.2,31.2c-22.4-0.1-44.8-0.1-67.1-0.2L356,30.8h-24.8c-0.5,0-0.9,0.4-0.9,0.9
	c0,0.5,0.4,0.9,0.9,0.9c25.4,0,50.8,0.1,76.3,0.2c36.5,0,73.1,0.1,109.6,0.1h7.8c1.2,0,3.3,0.4,4.5,0h0.1c-0.1,0.8,0,1.6,0,2.4
	c0,4.5,0,9,0.1,13.5c0,0.4,0.3,0.6,0.7,0.6s0.6-0.3,0.6-0.6C531,43.1,531,37.6,531,32C531,31.6,530.7,31.2,530.2,31.2z M261.5,28
	c-1.3-0.9-3.2-0.3-4.3,1c-0.2-0.4-0.5-0.7-0.9-1c-1.4-0.8-3.1-0.4-4.1,0.8c-0.1-0.7-0.4-1.5-1-1.1c-1,0.7-0.6,1.9-0.5,3
	c0.1,1.8,0.2,3.5,0.1,5.3c-0.1,0.9,1.4,0.9,1.4,0c0.1-2,0.2-3.9,0.1-5.9c1.3-0.9,3.1-2,3.6,0.3c0.3,1.7-0.1,3.6,0.1,5.3
	c0.1,0.5,0.5,0.8,0.9,0.8s0.7-0.4,0.8-0.8c0.2-1.7,0.2-3.4,0-5.1v-0.2c0.4-0.3,0.7-0.6,1-0.8c1.1-0.7,2.3-0.5,2.6,0.9
	c0.4,1.7-0.1,3.6,0,5.3c0,0.4,0.4,0.8,0.8,0.8s0.8-0.4,0.8-0.8C263.1,33.3,263.7,29.5,261.5,28L261.5,28z M270.9,27.8
	c-1.3-1.2-4.5-0.6-5.2,1.1c-0.1,0.1,0,0.3,0.1,0.3h0.1c1.4,0,3.6-1.9,4.5,0.1c0.2,0.6,0.4,1.3,0.5,1.9c-1-0.8-2.3-1-3.5-0.8
	c-1.4,0.3-3,1.3-2.7,3c0.4,1.4,1.6,2.4,3,2.5c1.1,0.1,2.2-0.1,3.1-0.7c-0.1,1.2,1.8,1.3,1.7,0.1c-0.1-1.5-0.1-3-0.3-4.5
	C271.9,29.9,271.8,28.6,270.9,27.8L270.9,27.8z M266.1,33.4c-0.3-1.2,2-1.5,2.6-1.5c0.7,0.1,1.4,0.3,2.1,0.5v0.7
	c-0.6,0.7-1.4,1.2-2.4,1.4C267.7,34.7,266.4,34.4,266.1,33.4z M275.7,27.9c-0.1-0.1-0.3-0.1-0.4,0l0,0c-0.7,0.9-0.4,2.2-0.3,3.3
	c0.1,1.4,0.1,2.9,0.1,4.3c0.1,0.5,0.5,0.8,1,0.8c0.4,0,0.7-0.4,0.8-0.8c0-1.5-0.1-3.1-0.2-4.6C276.5,29.9,276.6,28.6,275.7,27.9z
	 M275.8,25.8c0.3-0.3,0.4-0.8,0.1-1.1c0,0,0,0-0.1-0.1c-0.3-0.3-0.7-0.3-0.9,0l0,0c-0.2,0.2-0.3,0.5-0.3,0.8c0,0.4,0.4,0.7,0.8,0.7
	C275.5,26,275.7,25.9,275.8,25.8z M284.5,27.3c-1.6-0.3-3.3,0.4-4.2,1.9c-0.1-0.7-0.3-1.5-0.8-1.7c-0.3-0.1-0.6,0-0.7,0.2v0.1
	c-0.2,1.3-0.3,2.7-0.1,4c-0.1,1.4,0.1,2.8,0.5,4.1c0.3,0.6,1.1,0.4,1.3-0.2c0.5-1.5,0.1-3.4,0-4.9c0.9-1.1,3-2.7,3.8-1.4
	c0.4,0.7,0.2,2,0.2,2.8c0,1,0.1,2.1,0.1,3.1c0.1,1.3,2,1.3,2,0c-0.1-1.8-0.1-3.7-0.3-5.5C286.4,28.7,285.6,27.6,284.5,27.3
	L284.5,27.3z M295.3,30.6c-0.6-0.3-0.9-0.6-0.5-1.3c0.3-0.5,1.6-0.6,2.2-0.5c0.3,0,1.3,0.6,1.8,0.4h0.1c0.3-0.2,0.5-0.6,0.3-0.9
	c0,0,0,0,0-0.1c-0.7-1.2-2.6-1.2-3.8-0.9c-1.3,0.2-2.3,1.4-2.2,2.7c0,1.5,1.2,1.9,2.5,2.2c0.8,0.2,3.5,1.3,1.6,2.2
	c-1.1,0.5-2.3-0.2-3.4-0.3c-0.7-0.1-1.4,0.7-0.7,1.3c1.4,1,3.1,1.3,4.7,0.7c1.2-0.5,1.8-1.8,1.5-3C298.7,31.2,296.7,31.3,295.3,30.6
	z M302.7,27.7c-0.1-0.1-0.3-0.2-0.4-0.1c0,0,0,0-0.1,0.1c-0.8,1-0.7,2.4-0.8,3.7c-0.2,1.6-0.1,3.2,0.2,4.8c0.1,0.4,0.6,0.7,1,0.5
	c0.3-0.1,0.5-0.4,0.6-0.7c0-1.5-0.1-3.1-0.1-4.6C303.1,30.1,303.4,28.8,302.7,27.7z M302.2,24.4c-0.2,0-0.3,0.1-0.4,0.2
	c-0.2,0.3-0.3,0.6-0.1,0.9c0.2,0.4,0.7,0.6,1.2,0.3c0.1,0,0.2-0.1,0.2-0.2c0.3-0.3,0.3-0.8-0.1-1.1
	C302.7,24.4,302.4,24.4,302.2,24.4z M311.3,34c-1.2,0-2.3,0.1-3.5,0.2c0.5-0.9,1-1.7,1.6-2.5c0.8-1,2.2-2,2.5-3.4
	c0.1-0.5-0.2-1-0.6-1.1c-0.1,0-0.3,0-0.4,0c-1.7,0.2-3.6,0-5.2,0.5c-0.3,0.1-0.4,0.3-0.3,0.6c0,0.1,0.1,0.2,0.2,0.3
	c1.2,0.5,2.4,0.7,3.7,0.5c-0.2,0.1-0.3,0.3-0.5,0.5c-0.4,0.5-0.8,1-1.2,1.5c-0.9,1.2-1.6,2.5-2.3,3.8c-0.2,0.5-0.1,1,0.4,1.3
	c0.2,0.1,0.4,0.1,0.6,0.1c1.6-0.3,3.3-0.4,4.9-0.5c0.5,0,1-0.4,1-0.9C312.2,34.4,311.8,34,311.3,34L311.3,34z M321.6,32
	c0.4-0.1,0.7-0.6,0.6-1c-0.6-3.8-6.5-5.4-7.6-1.1c-0.5,1.8-0.6,4.3,0.9,5.7s4,1,5.8,0.2c1-0.5,0.1-2-0.9-1.5s-2.5,1-3.5,0.3
	c-0.6-0.5-0.9-1.2-0.9-1.9c0.4,0,0.9-0.1,1.4-0.1C318.7,32.4,320.1,32.3,321.6,32L321.6,32z M316,31.1l0.1-0.3
	c0.5-2.6,3.2-2,4.2-0.2c-1.2,0.2-2.3,0.4-3.5,0.5H316z M17.8,157.5c0.9,1.1,1.4,3,0,3.9c-1.2,0.7-2.6,0.6-3.8-0.1
	c-0.7-0.8-1-2-0.8-3.1c0.1-0.4,0.5-1,0-1.3l-0.1-0.1c-0.3-0.1-0.6-0.1-0.8,0.1c-1,1.1-0.8,2.8-0.3,4.1c0.7,1.6,2.3,2.5,4,2.3
	c1.7,0.1,3.2-0.7,4-2.2c0.7-1.6,0.3-3.5-0.9-4.7C18.5,155.9,17.2,156.8,17.8,157.5z M19.7,153.1c-1.8-0.2-3.5-0.2-5.3-0.1
	c-0.2-0.4-0.5-0.7-0.6-1.1c-0.3-0.6-0.5-1.3-0.6-1.9c-0.1-1-1.6-1-1.6,0c0.1,1.2,0.5,2.3,1.3,3.2c-0.3,0-0.6,0-0.9,0.1
	c-0.8,0.1-0.5,1.2,0.2,1.2c2.5,0.2,5,0.3,7.5,0.1c0.4,0,0.7-0.4,0.6-0.8C20.3,153.4,20,153.2,19.7,153.1L19.7,153.1z M18.7,148
	c2.1-1.1,2.8-3.7,1.7-5.8c-0.1-0.2-0.2-0.3-0.3-0.5c-1.6-2.1-4.6-2.5-6.7-0.8c-0.1,0.1-0.2,0.2-0.3,0.3v0.1
	c-1.3,0.9-1.9,3.7-1.4,4.9C12.9,148.6,16.5,149.2,18.7,148z M18.6,142.4c1,1.1,1,2.8,0,3.8c-0.1,0.1-0.2,0.2-0.4,0.3
	c-1.4,0.9-3.3,0.8-4.6-0.4c-1.1-1.1-0.5-2.6,0.4-3.8C15.5,141.5,17.2,140.9,18.6,142.4L18.6,142.4z M13.9,138.6
	c1.4-0.1,2.1-1.4,2.5-2.6c0.4-1.2,1.3-3.2,2.8-1.6c0.9,1-0.1,2.7-0.3,3.7c-0.1,0.4,0.1,0.7,0.5,0.8c0.3,0.1,0.6-0.1,0.7-0.3
	c1.3-2.1,1-6.5-2.3-6.4c-1.2,0.1-2.1,1-2.4,2.1c-0.3,0.7-0.9,4.1-2.4,2.3c-0.7-0.8,0.4-2.9,0.5-3.8c0.1-0.6-0.8-1.1-1.1-0.5
	C11.4,134.2,10.5,138.9,13.9,138.6L13.9,138.6z M13.6,130c0.9,0,1.8-0.6,2.2-1.5c0.4-0.8,0.5-2.1,1.3-2.7c1.4-1,2.1,0.4,2,1.5
	c-0.1,0.7-0.4,1.3-0.8,1.8c-0.6,0.8,0.9,1.8,1.4,0.8c0.9-1.2,1.2-2.8,0.7-4.2c-0.5-1.3-1.9-2-3.2-1.7c-1.5,0.4-2,1.9-2.5,3.2
	c-0.3,1-1,2-1.9,0.9s0.1-2.6,0.5-3.7c0.1-0.4-0.4-0.8-0.7-0.5C10.9,125.3,10.4,130.2,13.6,130z M18.4,117.6c2.7-1,2.7-6.6-0.4-7.1
	c-1.3-0.1-2.6,0.7-3,1.9c-0.3,0.6-0.6,3.4-1.9,2.2c-0.8-0.9,0.3-2.4,0.3-3.4c0-0.2-0.2-0.4-0.4-0.4c-0.1,0-0.2,0-0.2,0.1
	c-2.1,1-1.7,5.9,1,5.7c1.4-0.1,1.9-1.4,2.2-2.5c0.3-1.1,1.7-3.3,2.6-1.1c0.6,1.4,0,2.5-0.9,3.5C17.3,116.9,17.6,117.8,18.4,117.6z
	 M19.9,106.8c-1.3-0.1-2.5-0.1-3.8,0c-1.1,0-2.2,0.3-3.2,0.3c-0.3-0.1-0.6,0-0.8,0.3v0.1c-0.2,0.3-0.1,0.7,0.2,0.9
	c0.9,0.4,2.3,0.1,3.2,0c1.5-0.1,2.9-0.1,4.4,0C20.9,108.4,20.9,106.9,19.9,106.8z M8.8,107.2c-0.5,0.3-0.6,0.9-0.3,1.4
	c0,0.1,0.1,0.1,0.1,0.2c0.3,0.3,0.7,0.3,1,0c0.1-0.1,0.2-0.3,0.2-0.5c0.2-0.1,0.3-0.4,0.3-0.6c-0.2-0.5-0.7-0.8-1.2-0.6
	C9,107.1,8.9,107.2,8.8,107.2z M9.9,108c0-0.2-0.1-0.3-0.3-0.4C9.9,107.8,9.9,107.9,9.9,108L9.9,108z M9.1,107.8L9.1,107.8
	L9.1,107.8z M13,104.1c0.1-1.3,0-2.5-0.2-3.8l0.6,0.4l1.9,1.3c1.2,0.8,2.5,1.6,3.8,2.5c0.3,0.2,0.8,0.1,1-0.3c0-0.1,0.1-0.1,0.1-0.2
	c0.4-2,0.4-4,0.1-6c-0.1-1.3-2.1-1.3-2,0s0.4,3,0.5,4.4c-1.2-0.8-2.4-1.7-3.6-2.5c-0.9-0.6-2.2-2-3.4-1.8c-0.3,0.1-0.5,0.3-0.6,0.6
	c-0.2,1.8-0.1,3.6,0.5,5.2C11.9,104.7,12.9,104.8,13,104.1L13,104.1z M14.7,96.1c0.4,0.1,0.8,0.1,1.2,0.1l0,0
	c3.4-0.1,5.5-4.2,3.9-7.3c-0.5-0.9-1.8-0.1-1.3,0.8c0.9,1.9,0.1,4.3-1.8,4.9c0.1-2-0.1-4.1-0.4-6.1c-0.1-0.5-0.7-0.6-1.1-0.4
	c-1.9,0.9-4,1.9-3.7,4.3C11.7,94.2,13,95.7,14.7,96.1z M14.9,89.8c0,1.6,0.1,3.3,0.3,4.9c-1.1-0.2-1.9-1.1-2.2-2.1
	C12.7,91.2,13.8,90.4,14.9,89.8z"/>
<path class="st3" d="M558.2,109.2c-1.5-0.6-3.2-0.2-4.2,1c-0.2-0.5-0.6-0.9-1.1-1.2c-1.4-0.5-2.9-0.3-4,0.7
	c-0.1-0.2-0.1-0.4-0.2-0.6c-0.1-0.1-0.2-0.2-0.3-0.1c-0.1,0-0.1,0.1-0.1,0.2c-0.3,1.2-0.3,2.4-0.2,3.6c0,1.4-0.1,2.7,0,4.1
	c0,0.3,0.3,0.5,0.6,0.5s0.5-0.2,0.5-0.5c0.1-1.5,0.1-2.9,0.1-4.4v-1.1c0.3-0.3,0.6-0.6,0.9-0.8c1.2-0.7,2.6-0.4,2.8,1.1
	c0.2,1.7-0.1,3.5,0,5.2c0,0.4,0.4,0.7,0.9,0.7c0.4,0,0.7-0.3,0.7-0.7c0.1-1.7,0.1-3.5,0-5.2c0-0.1,0-0.3-0.1-0.4
	c0.4-0.3,0.7-0.5,1.1-0.8c0.6-0.4,1.3-0.4,1.9-0.1c0.8,0.4,0.8,0.8,0.8,1.7c0.1,1.5-0.2,3.3,0.1,4.7c0.1,0.6,0.9,0.5,1,0
	c0.2-0.7,0.3-1.5,0.2-2.2c0.1-0.8,0.1-1.7,0.1-2.6C559.5,111,559.3,109.8,558.2,109.2L558.2,109.2z M562.7,110
	c-0.1,0.2,0,0.4,0.1,0.5s0.2,0.1,0.3,0c0.6-0.1,1.2-0.4,1.8-0.6c0.7-0.1,1.5-0.1,2.1,0.3c0.4,0.3,0.6,1.2,0.6,1.7s0.1,0.7,0.1,1.1
	c-1.3-0.8-2.9-1-4.4-0.4c-1.3,0.5-2.1,2-1.7,3.4c0.5,1.4,1.9,2.2,3.4,2c1-0.1,1.9-0.6,2.6-1.2v0.3c-0.1,0.9,1.5,0.9,1.5,0
	c0-2.4,0.9-6-1-7.9C566.7,107.8,563.5,108.2,562.7,110L562.7,110z M566,116.1c-0.8,0.5-2.3,0.7-2.8-0.4c-0.7-1.4,1.3-2,2.3-1.9
	c0.8,0.1,1.5,0.3,2.3,0.4v0.6C567,115.1,566.6,115.7,566,116.1z M571.9,109.2c-0.3,1.4-0.4,2.8-0.3,4.2c-0.1,1.3-0.1,2.7,0.1,4
	c0.1,0.6,1,0.6,1.2,0c0.3-1.4,0.4-2.9,0.4-4.3c0.1-1.3-0.1-2.7-0.6-3.9c-0.1-0.2-0.4-0.3-0.6-0.1C572,109,572,109.1,571.9,109.2z
	 M573.1,106.1c-0.2-0.3-0.5-0.4-0.8-0.3c-0.5,0.1-0.9,0.7-0.7,1.2l0,0c0.1,0.5,0.7,0.8,1.1,0.6c0.1,0,0.3-0.1,0.4-0.2
	C573.3,107.1,573.4,106.6,573.1,106.1L573.1,106.1z M573.2,106.7C573.2,106.7,573.2,106.6,573.2,106.7L573.2,106.7z M582,109
	c-1.4-0.9-3.6-0.1-5,1.2c0-0.4-0.2-0.8-0.4-1.2c0-0.1-0.2-0.1-0.2-0.1s0,0-0.1,0.1c-0.6,1-0.4,2.3-0.4,3.4c-0.1,1.5-0.1,3,0,4.5
	c0,0.4,0.3,0.7,0.7,0.7s0.7-0.3,0.7-0.7c0-1.5-0.1-3-0.3-4.5v-0.9c1.4-0.8,3.7-2.3,4.3-0.7c0.2,0.9,0.3,1.9,0.3,2.9
	c0.1,1.1,0.1,2.1,0,3.2c-0.2,1.3,1.7,1.3,1.6,0.2c-0.2-1.7,0-3.5-0.2-5.2C583,111,582.9,109.6,582,109L582,109z M596.2,109.1
	c-1.3-1.5-4.4-0.6-5.7,0.6c-0.3,0.3-0.1,0.9,0.3,0.8c1.6-0.2,4.4-1.8,4.8,0.7c0.1,0.4,0.1,0.9,0.1,1.3c-1-0.5-2.1-0.7-3.2-0.5
	c-1.4,0.1-2.5,1.2-2.4,2.6c0.2,2.8,3.4,3.1,5.4,1.8v0.2c-0.1,0.9,1.4,0.9,1.5,0c0.1-1.6,0.1-3.2,0-4.7
	C597.1,111,596.8,110,596.2,109.1L596.2,109.1z M593.7,115.9c-0.9,0.2-2.5-0.2-2.2-1.5c0.3-1,1.8-0.9,2.6-0.8
	c0.6,0.1,1.1,0.3,1.7,0.5v0.5C595.1,115.2,594.4,115.6,593.7,115.9z M603.9,113.1c0.7-1,2.4-2.4,2-3.7c0-0.1-0.2-0.2-0.3-0.2
	c-1.3-0.1-2,1.6-2.7,2.6c-0.8-1.1-1.9-2.7-3.1-2.7c-0.1,0-0.2,0.1-0.2,0.1c-0.3,1.4,1.5,2.9,2.3,3.9c-0.8,1.1-1.5,2.2-2.2,3.4
	c-0.4,0.7,0.6,1.5,1.1,0.9c0.7-0.9,1.4-1.8,2.1-2.8c0.6,1.1,1.5,2.1,2.4,3c0.6,0.5,1.7-0.2,1.2-0.9
	C605.5,115.5,604.7,114.2,603.9,113.1L603.9,113.1z M608.8,109.1c-0.6,2.4-0.3,5.3-0.1,7.7c0,0.4,0.3,0.7,0.7,0.7s0.7-0.3,0.7-0.7
	l0,0c0.1-2.5,0.3-5.3-0.3-7.7c-0.1-0.3-0.4-0.4-0.6-0.3C609,108.8,608.8,109,608.8,109.1z M609.5,107.3c0.1,0,0.1-0.1,0.2-0.1
	c0.1-0.1,0.1-0.1,0.2-0.2c0.1-0.2,0.1-0.4,0.1-0.6c0-0.1-0.1-0.2-0.1-0.2c0-0.1-0.1-0.2-0.2-0.3c-0.1-0.1-0.3-0.2-0.5-0.2
	s-0.3,0.1-0.4,0.2c-0.1,0.1-0.2,0.1-0.2,0.2c-0.2,0.3-0.2,0.7,0,0.9C608.7,107.4,609.1,107.5,609.5,107.3L609.5,107.3z M609.3,106.9
	c0.1,0,0.1,0,0.2,0H609.3z M618.5,114.6c-0.4-1.5-1.9-2.1-3.3-2.4c-1-0.2-2.2-0.3-1.8-1.7c0.5-1.7,3.2-0.9,4.1-0.2
	c0.2,0.2,0.5,0.1,0.6,0s0.1-0.3,0.1-0.4c-0.5-2.8-5.7-2-6,0.7c-0.2,1,0.2,2,1.1,2.4c0.9,0.5,2,0.4,2.9,0.9c1.3,0.7,0.3,2.3-0.9,2.3
	c-0.8,0.1-1.6-0.1-2.3-0.6s-1.4,0.7-0.7,1.2C614.1,118.1,619.2,117.9,618.5,114.6L618.5,114.6z M283.3,274.3c1.8,2.1-0.7,4.2-2.8,4
	c-2.3-0.2-4.3-2.2-2.5-4.3c0.3-0.4,0-1.1-0.5-0.9c-1.3,0.6-2,2.2-1.5,3.5c0.7,1.8,2.4,3,4.4,3.1c3.5,0.4,6.6-3.4,3.9-6.4
	C283.7,272.7,282.8,273.7,283.3,274.3z M276.4,270.2c0.9,0.9,2.4,0.5,3.5,0.5c1.6,0,3.2,0,4.8-0.2c0.9-0.1,0.6-1.4-0.2-1.4
	c-1.6-0.1-3.3,0-4.9,0.1h-0.8l-0.6-0.9c-0.2-0.2-0.3-0.5-0.5-0.7c-0.1-0.3-0.2-0.7-0.3-1c-0.1-0.3-0.5-0.5-0.8-0.4
	c-0.2,0.1-0.3,0.2-0.4,0.4c-0.2,0.8,0.1,1.6,0.7,2.2c0.2,0.2,0.3,0.4,0.5,0.6c-0.4,0.1-0.8,0.3-1.1,0.6
	C276.3,270,276.3,270.2,276.4,270.2L276.4,270.2z M278.1,264.4c1.9,1.1,4.9,0.6,6.1-1.3c1-1.9,0.4-4.2-1.5-5.2h-0.1
	c-1.8-1-5-0.8-5.8,1.3c0,0.1,0,0.2,0,0.4C275.1,260.5,276.8,263.6,278.1,264.4z M278.1,259.7c1.1-1.3,2.9-1.5,4.2-0.4l0,0
	c1,0.8,1.1,2.3,0.3,3.3c-0.1,0.1-0.3,0.3-0.4,0.4c-1.4,0.9-3.2,0.6-4.2-0.6c-0.5-0.8-0.4-1.6-0.5-2.4
	C277.7,260,278,259.8,278.1,259.7L278.1,259.7z M277.5,248.7c-2.5,0.6-1.8,5.1,0.1,6.1c1.2,0.6,1.9-0.5,2.3-1.5s0.3-2.2,0.9-3
	c1.8-2.4,4,2.4,1.8,3c-1,0.3-0.5,1.8,0.4,1.5c2.9-1.1,2.1-6.6-1.1-6.6c-1.8,0-2.5,1.8-2.8,3.3c-0.1,0.5-0.1,0.9-0.3,1.4
	c0,0.6-0.4,0.9-1.1,0.9c-0.3-0.3-0.4-0.7-0.5-1.1c-0.3-1.1,0-2.3,0.7-3.2C278.4,249,277.9,248.6,277.5,248.7z M278.4,246.7
	c1.6,0.2,2-1.8,2.5-3c0.4-0.8,1.4-2.9,2.4-1.5c0.9,1.2-0.4,2.4-0.9,3.3c-0.3,0.5,0.2,1.2,0.8,1c2.5-0.9,2.8-6.5-0.3-6.6
	c-1.6-0.1-2.6,1.8-3.2,3c-0.2,0.4-0.4,0.9-0.5,1.3c-0.3,0.6-0.4,1.1-1.1,0.5c-1.2-1.1-0.3-2.7,0.1-3.9c0.1-0.3-0.1-0.6-0.4-0.6
	c-0.1,0-0.3,0-0.4,0C275,241.7,275.3,246.4,278.4,246.7L278.4,246.7z M277.3,232.6c0.1,0.1,0.3,0,0.4-0.1v-0.1
	c-0.1-0.8-0.3-1.5-0.5-2.3c-0.3-0.8,0.1-1.7,0.8-2.2c0.5-0.1,1-0.1,1.5,0l0.9,0.1c-0.6,1-0.8,2.1-0.7,3.2c0,1.4,1.3,2.6,2.7,2.6
	c1.7,0.1,2.5-0.9,2.9-2.4c0.2-1.2,0-2.4-0.7-3.4c0.1,0,0.2-0.1,0.3-0.1c0.7-0.3,0.2-1.6-0.5-1.3c-2.4,0.8-6-1.3-8,0.7
	C275,228.6,275.8,231.6,277.3,232.6z M283.8,231.8c-0.3,0.6-0.9,0.7-1.5,0.6c-1.2-0.1-1.5-0.9-1.5-2c-0.1-0.8,0.1-1.7,0.6-2.4
	c0.4,0,0.8,0.1,1.3,0.1c0.4,0.7,1.1,1.2,1.3,2C284,230.7,284,231.3,283.8,231.8L283.8,231.8z M284.7,218.3c0.2-0.3,0.2-0.7,0-0.9
	s-0.4-0.2-0.6-0.2c-1.4,0.5-2.7,1.3-3.8,2.4c-1-0.8-2.2-1.5-3.4-2c-0.5-0.2-0.9,0.5-0.5,0.9c0.9,0.8,1.8,1.5,2.8,2.2
	c-1,0.7-2.9,1.5-2.7,2.9c0,0.1,0.1,0.3,0.3,0.3c0.6-0.1,1.1-0.4,1.5-0.8c0.6-0.4,1.4-0.7,2-1.2l0.2-0.2c1.1,0.9,2.2,1.8,3.4,2.7
	c0.6,0.4,1.1-0.4,0.7-0.9c-0.9-1-1.9-1.9-3-2.7c0.3-0.2,0.5-0.5,0.8-0.7C283.3,219.5,284,218.9,284.7,218.3L284.7,218.3z
	 M284.2,213.1c-1.6,0-3.2-0.1-4.8-0.1c-0.9,0-2.1-0.1-2.7,0.8c0,0.1,0,0.1,0,0.2c0.6,0.8,2,0.5,2.9,0.6c1.5,0,2.9,0.1,4.4,0.2
	C285,214.9,285.4,213.2,284.2,213.1L284.2,213.1z M273.9,213.4L273.9,213.4c-0.4,0-0.6,0.2-0.6,0.4v0.1c-0.1,0.4,0.2,0.7,0.6,0.9
	s0.6-0.1,0.7-0.4c0-0.2,0-0.3,0-0.5C274.5,213.6,274.2,213.4,273.9,213.4L273.9,213.4z M277.8,211c1.2,0.2,2.3-0.4,2.9-1.4
	c0.4-0.7,0.6-2.5,1.3-2.9s1.3,0.4,1.5,0.9c0.5,0.9,0.3,2.1-0.5,2.8c-0.7,0.7,0.4,1.7,1,1c1-1,1.4-2.5,1-3.9
	c-0.3-1.2-1.2-2.7-2.6-2.6s-2,1.3-2.4,2.5c-0.1,0.4-0.2,0.8-0.3,1.2c-0.4,1-1.8,2.2-2.4,0.2c-0.2-1,0-2.1,0.6-2.9
	c0.4-0.4-0.3-1.1-0.8-0.8C275.5,206.3,275.6,210.5,277.8,211L277.8,211z"/>
<path class="st4" d="M27.1,237.7V237c0.5-0.5,1.1-1,1.8-1.3c1.4-0.4,1.6,0.7,1.6,1.8c0.1,1.5,0.1,3,0.1,4.4c0.1,0.5,0.5,0.8,0.9,0.7
	c0.4,0,0.7-0.3,0.7-0.7c0-1.5,0-3-0.1-4.4v-0.2c0.3-0.3,0.5-0.6,0.8-1c0.9-1,2.7-1.9,3.1,0.1c0.3,1.8-0.2,3.8,0,5.6
	c0,0.4,0.4,0.8,0.8,0.8c0.3,0,0.5-0.2,0.7-0.4c0.7-1.1,0.3-3,0.3-4.3s0.3-2.9-0.9-3.8c-0.9-0.7-2.1-0.9-3.1-0.4
	c-0.6,0.2-1.1,0.5-1.5,0.9c0,0-0.2,0.3-0.4,0.6c-0.2-0.4-0.4-0.7-0.7-1c-1.2-1-3-0.4-4.1,0.7c-0.1-0.3-0.2-0.6-0.3-0.9
	c-0.1-0.2-0.4-0.3-0.6-0.1c-0.1,0.1-0.2,0.1-0.2,0.2c-0.5,1.1-0.2,2.5-0.2,3.6c0,1.4,0,2.7-0.1,4.1c-0.1,1,1.4,1,1.5,0
	C27.1,240.6,27.1,239.1,27.1,237.7L27.1,237.7z M45.7,242.4c0,1.1,1.9,1.1,1.8,0c-0.2-1.5-0.3-3-0.4-4.5c0.1-1-0.2-2-0.8-2.8
	c-1.5-1.7-4.1-1.3-5.8-0.2c-0.6,0.4-0.3,1.5,0.5,1.2c1.7-0.5,4-1.3,4.4,1.2c0,0.3,0.1,0.5,0.1,0.8c-1-0.7-2.1-1-3.3-0.8
	c-1.5,0.2-2.2,1.9-2.1,3.2C40.2,243.1,43.8,243.8,45.7,242.4z M41.7,240.3c0-0.4,0.1-0.7,0.3-1c0.3-0.4,0.8-0.3,1.3-0.3
	c0.8,0,1.5,0.2,2.2,0.6c0.1,0,0.1,0.1,0.2,0.1v0.5l-0.2,0.1c-0.6,0.5-1,1.1-1.9,1.2S41.6,241.2,41.7,240.3L41.7,240.3z M51.1,242.2
	c0-1.5,0-3,0.1-4.5c0.2-1.2,0.1-2.4-0.3-3.5c-0.2-0.4-0.7-0.2-0.9,0.1c-0.3,1.2-0.5,2.5-0.4,3.7c-0.1,1.4-0.1,2.8,0,4.2
	C49.8,243.1,51.1,243.2,51.1,242.2z M55.2,236.8c0.6-0.3,1.2-0.7,1.8-1c0.5-0.4,1.1-0.5,1.6-0.3c0.7,0.3,0.7,0.5,0.7,1.3
	c0.1,1.8,0,3.5,0,5.3c0,1.1,1.8,1.1,1.8,0c-0.1-1.6-0.1-3.2-0.2-4.8c0-1-0.1-2.3-0.9-3c-1.4-1.2-3.6-0.1-4.9,1.2
	c-0.1-0.4-0.2-0.7-0.4-1c-0.1-0.2-0.4-0.3-0.7-0.2c-0.1,0.1-0.2,0.2-0.2,0.3c-0.2,1.2-0.2,2.4-0.1,3.6c0,1.3,0,2.6,0.1,4
	c0,0.4,0.3,0.7,0.7,0.7s0.7-0.3,0.7-0.7c0.1-1.4,0.1-2.8,0-4.2C55.2,237.5,55.2,237.1,55.2,236.8z M31.1,254.6
	c-0.8-0.4-2.8-1-2.2-2.1c0.6-1.2,2.9-0.4,3.7,0.1c0.5,0.4,1.1-0.3,0.8-0.8c-1.2-2.1-5.8-1.6-6.1,1.1c-0.1,1.6,2,2.3,3.1,2.8
	c0.4,0.1,0.8,0.3,1.2,0.6c1.2,1.2,0.1,1.8-0.7,2c-1.1,0.2-2.2-0.2-3-0.9c-0.6-0.5-1.2,0.5-0.8,1c1.4,1.8,6,1.9,6.5-0.9
	C33.8,256,32.3,255.2,31.1,254.6L31.1,254.6z M38.7,258.4c-1.1,1.5-1.2-1.7-1.2-1.8v-2.7v-1.7h1c1,0,1-1.5,0-1.6h-1
	c0-0.6,0-1.1-0.1-1.7c0-0.3-0.3-0.6-0.7-0.5c-0.3,0-0.5,0.2-0.5,0.5c-0.1,0.6-0.1,1.1-0.1,1.7c-0.4,0-0.8,0.1-1.2,0.2
	c-0.3,0.1-0.5,0.4-0.4,0.7c0.1,0.2,0.2,0.3,0.4,0.4c0.4,0.1,0.7,0.2,1.1,0.2v2.9c0,1.2-0.3,2.8,0.2,4c0.5,1,1.7,1.4,2.7,0.9
	c0.4-0.2,0.7-0.5,0.9-0.9s0-0.8-0.4-0.9C39.2,258.1,38.9,258.2,38.7,258.4L38.7,258.4z M47.8,256.8c0-0.9,0-1.7,0-2.6
	c0.2-1-0.1-2-0.8-2.8c-1.3-1.2-4.7-1.3-5.5,0.6c-0.1,0.3,0,0.7,0.4,0.7c1.6-0.1,4.2-1.9,4.6,1.1v0.7c-2-1.3-5.4-0.8-5.7,1.9
	c-0.1,1.4,0.8,2.7,2.2,3.1c1.2,0.2,2.5-0.1,3.5-0.8v0.5c0.1,0.9,1.5,0.9,1.4,0c0-0.5,0-1.1-0.1-1.6
	C47.9,257.3,47.9,257.1,47.8,256.8L47.8,256.8z M42.3,256.6c0.1-2.2,2.9-1.1,4.2-0.4v0.7c-0.6,0.5-1.3,0.8-2.1,1.1
	C43.4,258.2,42.2,257.8,42.3,256.6L42.3,256.6z M53.7,251c-0.9,0.1-1.7,0.5-2.4,1.1c-0.1-0.3-0.2-0.6-0.4-0.9
	c-0.1-0.2-0.4-0.3-0.6-0.1c-0.1,0.1-0.2,0.1-0.2,0.2c-0.4,1.1-0.1,2.5-0.1,3.7c0,1.4,0.1,2.8,0,4.2c0,0.4,0.4,0.8,0.8,0.8
	c0.3,0,0.5-0.1,0.6-0.4l0.1-0.1c0.1-0.2,0.1-0.5,0-0.7c0-1.3,0-2.7-0.1-4V254c0.3-0.3,0.6-0.6,1-0.8s0.9-0.4,1.4-0.5
	c0.4-0.1,0.7-0.5,0.7-0.9C54.5,251.3,54.1,250.9,53.7,251L53.7,251L53.7,251z M58.3,253.5v-1.1c0.7,0,1.3-0.1,1.9-0.3
	c0.4-0.1,0.6-0.6,0.5-0.9c-0.1-0.3-0.4-0.5-0.7-0.5c-0.6,0-1.1,0.1-1.7,0.1v-1.9c0-0.6-1-0.8-1.1-0.1s-0.2,1.4-0.3,2.1h-0.5
	c-0.3,0-0.5,0.1-0.6,0.4c-0.1,0.1-0.2,0.3-0.1,0.5v0.1c0.1,0.3,0.4,0.5,0.7,0.5h0.4c0,0.4-0.1,0.8-0.1,1.2c-0.2,1.5-0.2,3.1,0,4.7
	c0.4,1.9,2.2,2.6,3.6,1.1c0.3-0.3,0.2-0.8-0.1-1.1c-0.3-0.2-0.7-0.2-1,0c-1.1,0.9-0.9-2.3-0.9-2.4C58.3,255,58.3,254.3,58.3,253.5
	L58.3,253.5z M51.3,231.2v-0.1c0.1-0.4-0.1-0.7-0.5-0.8c-0.2,0-0.3,0-0.5,0.1l-0.1,0.1c-0.3,0.2-0.5,0.6-0.3,1s0.6,0.5,1,0.3
	C51.1,231.5,51.3,231.4,51.3,231.2L51.3,231.2z M528.4,234.2c-0.9-0.7-2.1-0.9-3.1-0.4c-0.6,0.2-1.1,0.6-1.5,1l-0.4,0.6
	c-0.1-0.4-0.4-0.7-0.7-1c-1.2-1-3-0.4-4.1,0.7c-0.1-0.3-0.2-0.6-0.3-0.9c-0.1-0.2-0.4-0.3-0.6-0.1c-0.1,0.1-0.2,0.1-0.2,0.2
	c-0.5,1.1-0.2,2.4-0.2,3.6c0,1.4,0,2.7-0.1,4.1c0,0.9,1.4,0.9,1.5,0c0.1-1.5,0.1-2.9,0.1-4.4v-0.7c0.5-0.5,1.1-1,1.8-1.3
	c1.4-0.4,1.6,0.7,1.7,1.8c0.1,1.5,0.1,3,0.1,4.5c0.1,0.5,0.5,0.8,0.9,0.7c0.4,0,0.7-0.3,0.7-0.7c0-1.5,0-3-0.1-4.5v-0.2
	c0.3-0.3,0.5-0.6,0.8-0.9c0.9-1,2.7-1.9,3.1,0.1c0.3,1.8-0.2,3.8,0,5.6c0,0.4,0.4,0.8,0.8,0.8c0.3,0,0.5-0.1,0.7-0.4
	c0.7-1.1,0.3-3,0.3-4.3S529.5,235.2,528.4,234.2L528.4,234.2z M537.8,235c-1.5-1.7-4.1-1.3-5.8-0.2c-0.6,0.4-0.3,1.4,0.5,1.2
	c1.7-0.5,4-1.4,4.4,1.2c0,0.3,0.1,0.6,0.1,0.8c-1-0.7-2.1-1-3.3-0.8c-1.5,0.2-2.2,1.9-2.1,3.2c0.2,2.5,3.8,3.2,5.6,1.8
	c0,1.1,1.9,1.1,1.8,0c-0.1-1.5-0.3-3-0.4-4.6C538.6,236.8,538.4,235.8,537.8,235L537.8,235z M537,240.2c-0.6,0.5-1,1.1-1.9,1.2
	s-1.9-0.3-1.9-1.2c0-0.4,0.1-0.7,0.3-1c0.3-0.4,0.8-0.3,1.3-0.3c0.8,0,1.5,0.2,2.2,0.6c0.1,0,0.1,0.1,0.2,0.1v0.5
	C537.1,240.1,537,240.2,537,240.2L537,240.2z M542.7,242.1c0-1.5,0-3,0.1-4.5c0.2-1.2,0.1-2.4-0.3-3.5c-0.2-0.4-0.7-0.2-0.9,0.1
	c-0.3,1.2-0.5,2.5-0.4,3.7c-0.1,1.4-0.1,2.8,0,4.2C541.3,243,542.7,243.1,542.7,242.1L542.7,242.1z M542.6,232.2V232
	c0.1-0.4-0.1-0.7-0.5-0.8c-0.2-0.1-0.4,0-0.5,0.1l-0.1,0.1c-0.3,0.2-0.5,0.6-0.2,1c0.2,0.3,0.6,0.5,1,0.2
	C542.4,232.5,542.5,232.3,542.6,232.2L542.6,232.2z M552.4,237.1c0-1-0.1-2.3-0.9-3c-1.4-1.2-3.6-0.1-4.9,1.2
	c-0.1-0.4-0.2-0.7-0.4-1c-0.2-0.2-0.5-0.3-0.7-0.1c-0.1,0.1-0.2,0.2-0.2,0.3c-0.2,1.2-0.2,2.4-0.1,3.6c0,1.3,0,2.7,0.1,4
	c0,0.4,0.3,0.7,0.7,0.7s0.7-0.3,0.7-0.7l0,0c0.1-1.4,0.1-2.8,0-4.2v-1c0.6-0.3,1.2-0.7,1.8-1c0.5-0.4,1.1-0.5,1.6-0.3
	c0.8,0.3,0.7,0.5,0.7,1.3c0.1,1.8,0,3.5,0,5.3c0,1.1,1.8,1.1,1.8,0C552.4,240.3,552.4,238.7,552.4,237.1z M525.5,250.7
	c-1.9-0.4-3.9,0.6-4.7,2.4c-0.8,1.8-0.3,4,1.2,5.3c1.6,1.2,4.1,1.7,5.6,0.3c0.7-0.7-0.4-1.8-1.1-1.1c-1,1-2.9,0.6-3.9-0.3
	c-0.5-0.5-0.8-1-1-1.7c1,0.1,2,0.1,3,0.2c1.1,0.3,2.3,0.3,3.5,0.1c0.3-0.1,0.5-0.4,0.5-0.7C528.8,253.1,527.4,251.3,525.5,250.7
	L525.5,250.7z M524.2,254.3c-0.8-0.1-1.7,0-2.5,0.1c0-0.4,0.2-0.8,0.4-1.1c0.7-1,1.9-1.4,3-1.2c1.1,0.4,1.9,1.3,2.2,2.4
	C526.3,254.6,525.1,254.3,524.2,254.3z M537.3,251.2c-1.5-1-3.7-0.2-5.1,1c0-0.3,0-0.5-0.1-0.8c0-0.3-0.2-0.5-0.5-0.6h-0.1
	c-0.3-0.1-0.6,0.1-0.7,0.4c-0.2,1.2-0.2,2.3,0,3.5c0,1.5,0.2,3,0.2,4.4c0,0.9,1.4,0.9,1.3,0c-0.1-1.8-0.1-3.6-0.2-5.4
	c1.3-0.9,3.8-2.4,4.5-0.5c0.2,0.8,0.2,1.6,0.1,2.4v3c0,0.4,0.3,0.8,0.8,0.8c0.4,0,0.8-0.3,0.8-0.8c0.1-1.6,0.1-3.2,0-4.8
	C538.5,252.8,538.1,251.8,537.3,251.2L537.3,251.2z M547.3,247.7c-0.2,1.3-0.2,2.7-0.1,4c-0.9-0.8-2.1-1.2-3.2-1
	c-1.8,0.6-3,2.2-3.1,4.1c-0.1,1.7,0.8,3.9,2.6,4.3c1.6,0.3,3.1-0.3,4.2-1.4c0,0.4,0.1,0.8,0.1,1.2c0,0.4,0.3,0.7,0.7,0.7
	s0.7-0.3,0.7-0.7c0-3.6,0.2-7.8-0.8-11.3c-0.1-0.3-0.4-0.5-0.7-0.4C547.5,247.3,547.3,247.5,547.3,247.7L547.3,247.7z M547.3,256
	c-0.9,0.7-1.7,1.7-3,1.8c-1.4,0.1-2.1-1.4-2.3-2.6c-0.2-1.2,0.7-3.1,2.2-3.1c1,0,2.3,1.1,3,1.7c0.1,0.7,0.1,1.4,0.2,2.1
	C547.4,255.9,547.4,256,547.3,256L547.3,256z M577.4,191.7c-1.9,1.4-5.2,1.4-5.5-1.6c-0.2-1.2,0.3-2.5,1.2-3.3
	c1.1-0.9,2.7-0.9,3.9,0c0.5,0.5,1.3-0.1,1-0.7c-0.8-1.6-2.8-1.5-4.3-0.9c-1.7,0.7-2.8,2.3-2.9,4.2c-0.3,1.9,0.8,3.7,2.5,4.4
	c1.5,0.5,3.9,0.3,5.1-0.9C578.9,192.3,578.1,191.2,577.4,191.7L577.4,191.7z M583.5,185.4c-0.8,0.1-1.5,0.5-2,1
	c-0.1-0.4-0.2-0.8-0.4-1.1c-0.1-0.2-0.4-0.3-0.7-0.2c-0.1,0.1-0.2,0.2-0.2,0.3c-0.1,1.2-0.1,2.4,0.1,3.6c0.1,1.4,0,2.7,0.1,4
	c0,0.4,0.4,0.7,0.8,0.6c0.3,0,0.6-0.3,0.6-0.6c0.2-1.7,0.2-3.4,0-5.2c0.2-0.2,0.5-0.4,0.8-0.6c0.4-0.2,0.9-0.5,1.3-0.6
	c0.3-0.3,0.3-0.7,0-1C583.8,185.4,583.7,185.4,583.5,185.4L583.5,185.4z M591.8,185.4c-1.3-1.6-4.1-0.2-5.1,1.1
	c-1.5,2-1.2,4.7,0.6,6.4c4.3,3.6,8.9-4,5.2-7.4C592.3,185.4,592.1,185.3,591.8,185.4L591.8,185.4z M592.3,190.3
	c-0.4,1.5-1.9,2.3-3.4,2c-3.5-1.1-1.4-7.5,2.3-5.9c0.1,0,0.2,0,0.3,0C592.2,187.7,592.8,188.8,592.3,190.3z M599.9,186.1
	c0.5,0.2,1,0.5,1.5,0.8c0.6,0.3,1-0.4,0.7-0.9c-1.4-1.8-5.5-1.7-5.9,1c-0.1,1,0.5,2,1.5,2.2c0.8,0.3,2.4,0.7,2.9,1.5
	c1,1.5-1.3,1.7-1.9,1.7c-0.7-0.1-1.4-0.3-1.9-0.8c-0.7-0.6-1.5,0.7-0.7,1.3c1.6,1.1,6.3,1.3,6.2-1.6c0-1.3-1.4-2-2.4-2.5
	c-0.3-0.1-0.6-0.3-0.8-0.4c-0.6-0.2-1.5-0.8-1.4-1.6S599.5,185.9,599.9,186.1L599.9,186.1z M609.2,189.2c-0.8-0.3-2.6-0.5-3.2-1.2
	c-1.8-1.9,2.4-2,3.4-1.2c0.3,0.3,0.7,0.3,0.9,0c0.3-0.3,0.3-0.7,0-0.9l0,0c-1.5-1.8-6.7-1.4-6.1,1.7c0.2,1.4,1.9,1.8,3,2.2
	c0.8,0.3,2.6,0.6,2.4,1.6c-0.3,1.4-3.5,1.5-4.1,0.6s-1.8,0.1-1.1,0.8c1.7,1.7,6,1.2,6.6-1.4C611.2,190.4,610.2,189.6,609.2,189.2
	L609.2,189.2z M622.1,184.9c-1.8-0.3-3.6,0.8-4.3,2.5c-0.3,0.6-0.4,1.3-0.4,2c-0.2,0.2-0.2,0.5,0,0.8c0.1,1.2,0.6,2.3,1.5,3.1
	c1.7,1.1,3.8,1.2,5.6,0.2c0.3-0.2,0.4-0.6,0.2-0.9s-0.6-0.4-0.9-0.2c-1.2,0.7-2.6,0.7-3.8,0.1c-0.7-0.5-1.1-1.2-1.2-2
	c2,0,4-0.1,5.9-0.2c0.3,0,0.8-0.3,0.7-0.7C625.3,187.4,624.3,185.3,622.1,184.9z M618.8,189c0-0.2,0-0.3,0-0.5
	c0.2-1.6,1.6-3,3.3-2.3c1,0.5,1.7,1.4,1.9,2.5C622.3,188.8,620.5,188.9,618.8,189L618.8,189z M633.5,185.5c-1.4-0.8-3-0.1-4.2,0.9
	c0-0.3-0.1-0.7-0.2-1c0,0,0,0,0-0.1c-0.1-0.3-0.4-0.5-0.7-0.4s-0.4,0.3-0.4,0.6c-0.1,2.6,0,5.2,0,7.8c0,0.7,1.3,1,1.4,0.2
	c0.2-1.8,0.3-3.7,0.1-5.6c1.3-1.1,3.6-2,3.8,0.4c0.2,1.6,0.1,3.2,0.1,4.8c0,0.4,0.4,0.7,0.8,0.7c0.3,0,0.6-0.3,0.7-0.7
	c0-1.6,0-3.2-0.1-4.8C634.9,187.3,634.4,186.2,633.5,185.5L633.5,185.5z M645.2,182.1c-0.2-0.7-1.3-0.5-1.3,0.2c0,1.2,0,2.4,0.1,3.6
	c-1.7-1.4-4.2-1.1-5.6,0.6c-0.5,0.6-0.8,1.4-0.9,2.2c-0.1,1.9,0.9,3.7,2.6,4.6c1.4,0.6,3,0.3,4.1-0.8v0.6c0,0.4,0.4,0.7,0.8,0.7
	c0.3,0,0.6-0.3,0.7-0.7C645.6,189.4,646,185.7,645.2,182.1L645.2,182.1z M643.6,191c-1.9,3.1-5.4-0.1-4.7-2.8c0.3-1.2,1.3-2,2.5-2
	c1,0.2,2,0.7,2.7,1.6c0,1,0,2,0.1,2.9C643.9,190.7,643.7,190.8,643.6,191z M576.9,59.4c-2,1.3-4.8,0.5-5-2.2c-0.1-2.2,3.1-4.8,5-2.9
	c0.2,0.2,0.6,0.2,0.8,0s0.2-0.5,0.1-0.7c-2-3.3-6.8,0.2-7.1,3c-0.2,2.4,1.6,4.6,4.1,4.8c1,0.1,2.1-0.2,2.9-0.8
	C578.4,60.1,577.7,58.9,576.9,59.4z M584,52.8c-0.7-0.4-1.7,0.1-2.2,0.5l-0.3,0.2c0-0.2-0.1-0.4-0.1-0.6c-0.2-0.8-1.2-0.5-1.3,0.2
	c-0.3,2.6,0,5.2-0.1,7.8c-0.1,1,1.5,1,1.5,0c0.1-1.9,0.2-3.8,0.2-5.7c0.3-0.2,0.5-0.5,0.8-0.7c0.2-0.2,0.5-0.3,0.7-0.3
	c0.3-0.1,0.6-0.1,0.9-0.4C584.4,53.6,584.4,53.2,584,52.8C584.1,52.9,584,52.9,584,52.8L584,52.8z M592.7,53.7
	c-1.3-1.6-3.7-1.9-5.4-0.6c-0.1,0-0.1,0.1-0.2,0.1c-1.7,1.5-1.8,4.7-0.5,6.5c1,1.6,4.1,1.9,5.6,1c2.3-1.4,2-4.9,0.7-6.9
	C592.9,53.9,592.8,53.8,592.7,53.7z M591.5,59.6c-1.2,0.7-3.5,0.2-4-1.1c-0.6-1.4-0.5-3,0.3-4.2c1.1-1.3,2.6-0.9,3.9-0.1
	c0,0.1,0,0.3,0,0.4C592.4,56,593.3,58.6,591.5,59.6z M600.7,56.2c-0.8-0.4-2.3-0.2-3-0.8c-1.5-1.4,0.8-1.9,1.5-1.8
	c0.7,0.2,1.4,0.5,2,0.8c0.5,0.2,1.2-0.3,0.8-0.8c-1.4-1.8-6.3-2.2-6.2,1c0,1.5,1.4,2.1,2.7,2.4c0.9,0.2,3.3,1,2,2.4
	c-1,1-2.7,0.9-3.6-0.2c0,0,0,0-0.1-0.1c-0.5-0.6-1.5,0.2-1.1,0.8c1.4,2,6,1.6,6.4-1.1C602.4,57.8,601.8,56.7,600.7,56.2z
	 M607.9,56.2c-0.5-0.2-1.4-0.2-1.8-0.6c-0.7-0.7-0.1-1.7,0.7-2c1-0.2,2,0,2.8,0.6c0.4,0.2,1-0.3,0.7-0.7c-1.4-1.9-5.5-1.7-5.7,1.1
	c-0.1,1.4,0.9,2.2,2.2,2.6c0.8,0.3,4,1.1,2.1,2.5c-1.2,0.8-2.6,0.2-3.5-0.6c-0.3-0.3-0.7-0.3-1,0s-0.3,0.7,0,1
	c1.5,1.8,6.7,1.8,6.5-1.4C610.6,57.2,609.2,56.5,607.9,56.2z M622.1,56.3c-0.8-0.4-2.4-0.3-3.1-0.9c-1.5-1.3,1.1-2.2,2-2
	c0.6,0.2,1.3,0.5,1.8,0.9c0.2,0.1,0.5,0,0.7-0.2c0.1-0.1,0.1-0.3,0-0.5c-1.2-2.7-6-2-6,1.1c0,1.5,1.2,1.9,2.4,2.3s3.5,0.9,2.5,2.6
	c-1,1.9-3.2,0.5-4-0.6c-0.4-0.6-1.6-0.3-1.3,0.5c1.1,2.9,6,3.5,6.9,0.1C624.2,58.2,623.4,56.8,622.1,56.3z M629.3,52.5h-1.5
	c0-0.7-0.1-1.4-0.2-2.1c-0.1-0.3-0.4-0.5-0.7-0.4c-0.2,0.1-0.3,0.2-0.4,0.4c-0.1,0.7-0.2,1.4-0.2,2.1h-1c-0.4,0-0.6,0.3-0.6,0.7
	c0,0.3,0.2,0.5,0.4,0.6c0.4,0.1,0.8,0.2,1.2,0.2c0,1.9,0.1,3.8,0.4,5.7c0.2,1.4,1.1,2.6,2.6,1.9c0.7-0.3,0.2-1.3-0.5-1.2
	c-1.1,0.2-0.8-5.1-0.8-5.6v-0.7c0.5,0,1,0,1.5,0C630.4,54.1,630.4,52.4,629.3,52.5L629.3,52.5z M637.3,53c-1.4-1.3-4.3-0.5-5.7,0.5
	c-0.5,0.4,0,1.2,0.6,1c0.7-0.2,1.4-0.4,2.2-0.6c1.2-0.2,2,0,2.1,1.3c0,0.3,0.1,0.7,0.1,1c-1.9-1.4-4.8-1.1-5.6,1.6
	c-0.4,1.3,0.3,2.7,1.7,3.1c0.1,0,0.1,0,0.2,0c1.4,0.3,2.8,0,4-0.8v0.2c0.1,1,1.7,1,1.6,0c-0.2-1.6-0.3-3.2-0.4-4.8
	C638,54.9,638,53.7,637.3,53L637.3,53z M636.7,58.7c-0.6,0.5-1.3,0.8-2,1c-1.2,0.3-2.8,0-2.3-1.6c0.7-2,3.1-1.2,4.3-0.1V58.7
	L636.7,58.7z M643.8,52.4c-0.9-0.1-1.7,0.2-2.2,0.9c0-0.2,0-0.3-0.1-0.5c-0.1-0.3-0.4-0.4-0.7-0.3c-0.2,0.1-0.3,0.2-0.3,0.3
	c-0.2,1.2-0.3,2.5-0.3,3.8c0,1.4-0.1,2.8-0.1,4.3c0,0.4,0.3,0.7,0.7,0.7s0.7-0.3,0.7-0.7c0.2-1.4,0.1-2.8,0.2-4.3v-1.2
	c0.5-0.8,1-1.5,2.1-1.6S644.7,52.5,643.8,52.4z M649.6,59.5c-1.4,0.6-1.1-3.9-1.1-4.6V54c0.4,0,0.9,0,1.3,0c0.8,0,1-1.3,0.2-1.4
	c-0.5-0.1-1.1,0-1.6,0.1c0-0.7-0.1-1.5-0.2-2.2c-0.1-0.3-0.4-0.4-0.7-0.3c-0.2,0.1-0.3,0.2-0.3,0.3c-0.1,0.7-0.2,1.5-0.2,2.2
	c-0.4-0.1-0.9,0-1.3,0.1c-0.2,0.1-0.4,0.3-0.3,0.6c0,0.1,0.1,0.2,0.2,0.3c0.4,0.3,0.9,0.4,1.4,0.5V55c-0.1,1.5,0,3,0.3,4.4
	c0.4,1.5,1.8,2.3,3,1.1C650.9,59.9,650.2,59.2,649.6,59.5L649.6,59.5z"/>
<path class="st5" d="M193.8,168.5c-1.3-15.1-0.4-79.6-0.6-96.5c0-2.7-2.2-3.6-4.4-2.6c-2.5,1.2-4.3,4.6-4.3,7.3
	c0.2,16.6,0.8,99.7,0.8,100.3c-1.7,0.3-114.8-0.4-125-0.6c-4.7-0.1-9.3,10.9-4.1,11c32.4,0.7,64.9,1.4,97.3,1.4
	c6.4,0,30.6,0,35.6-3.6C194.5,181.4,194.4,174.5,193.8,168.5z"/>
<path class="st6" d="M187.4,70.8c-0.1-1-3-2.8-3.4-2.9c-0.9-0.1-124.1-0.1-126.5,0c-1,0-4.2,1.1-4.5,1.6c-0.8,1.1-1,107.2-0.9,108.7
	c0,0.7,4.3,3.3,6.4,3.3c2.5,0,122.3,0.5,124.6,0.1c0.9-0.1,4.2-2.9,4.3-4.2S187.5,71.8,187.4,70.8L187.4,70.8z"/>
<path class="st5" d="M526.4,74.3c0-2.6-2.2-3.6-4.4-2.5c-2.5,1.2-4.3,4.6-4.2,7.3c0.3,31.9,0.1,63.8,0.1,95.7
	c-31.8,0.2-63.7,0.4-95.5,0.6c-54.8,0.4-109.6,0.7-164.4,1c-14.1,0.1-28.2,0.4-42.3,0.1c-4.7-0.1-9.3,10.9-4.1,11
	c36.5,0.8,73-0.3,109.5-0.5c54.1-0.3,108.2-0.7,162.3-1l36.8-0.2c3.7,0,6.4-4.5,6.4-7.9C526.6,143.4,526.8,108.8,526.4,74.3
	L526.4,74.3z"/>
<path class="st6" d="M519.4,169c-0.2,1.9,0.2,9.7-2.3,10.7c-1.2,0.2-2.4,0.4-3.6,0.5c-1.5,0.3-288.4,0.4-288.4,0.4
	c-4.3-0.1-20.7-0.9-21.3-1.8c-1.3-2.1-1.2-12.7-1.1-14.1c0,0-0.8-88-0.6-90.9c0.1-1.3-2.4-6.4,11.8-6.2c4.4,0.1,293.8-1,298-0.3
	c1.5,0.3,3.9-0.1,5.1,0.5c2.9,1.5,2.4,4.9,2.5,7.3S519.4,169,519.4,169L519.4,169z"/>
<path class="st7" d="M119.2,114.7c-1.6,1.5-3.3,2.9-4.8,4.5c-0.8,0.8,0.3,2.4,1.3,1.7s2.1-1.7,3.1-2.6c-0.1,5.3-0.2,10.7-0.3,16
	c0,0.7,0.6,1.3,1.3,1.3c0.7,0,1.3-0.6,1.3-1.3c0-6.3,0-12.5,0.1-18.8c0-0.7-0.6-1.2-1.2-1.2C119.7,114.4,119.4,114.5,119.2,114.7
	L119.2,114.7z M368.8,132.9c-3,0-6.1-0.2-9.1-0.1c4.9-3.8,11.1-8.7,9.4-14.8c-1.7-6.3-9.9-3.6-13.5-0.7c-0.4,0.4-0.4,1,0,1.4
	c0.3,0.3,0.6,0.4,1,0.2c1.6-0.8,3.3-1.4,5-2c2.5-0.7,4.5,0.3,5.1,3.1c0.3,1.5-1.3,3.7-2.2,4.8c-2.7,3.3-6.5,5.9-9.7,8.6
	c-0.5,0.5-0.5,1.3,0.1,1.8c0.2,0.2,0.5,0.3,0.9,0.4c4.4-0.3,8.7-0.2,13.1,0.3C370.7,136.1,370.8,132.9,368.8,132.9L368.8,132.9z"/>
<path class="st8" d="M184.2,68.9c-15.6-3.3-120.7-1.4-125.7-1s-5.6,3.8-5.5,5.7c0.6,7.6-2.4,98.2,1.5,104.9c2,3.6,5.3-0.8,6-2.4
	c3.4-7.5,1.5-17.1,1.2-25.2c-0.3-9.8-0.5-19.7-0.7-29.5c-0.2-9.1-0.7-39.4-0.9-43.1c4.9,0.8,31.1-1.4,39-1.7
	c18.5-0.6,36.9-1.1,55.4-1.3c9-0.1,17.8,0,26.7,1.9C184.5,77.8,188.3,69.7,184.2,68.9L184.2,68.9z M515,68.5
	c-8.1-1.5-292.8-1.5-297.8-1c-5.7,0.6-12.2,1.3-13.9,7.6c-1.4,5.1,0,99.4,0.4,101.6s3.9,1.3,5,0.4c1.7-1.4,2.6-3.6,2.2-5.8
	c-0.9-5.1-0.9-10.6-1.1-15.9c-0.3-8.8-0.4-77.9-0.4-78.9c1.5,0.2,43.4-1.4,52.3-1.4c63.4,0.1,243.9,0.8,250.2,1.5
	C515.3,77.2,518.9,69.3,515,68.5z"/>
<path class="st1" d="M520.9,82.9c0-1.8-0.2-3.7-0.2-5.5c-0.1-2.4,0.4-6.4-1-8.6c-1.7-2.8-6.6-2.5-9.8-2.6
	c-8.2-0.3-16.4-0.2-24.5-0.3c-33.7-0.2-67.3-0.1-101-0.1c-36.9,0-73.7,0.1-110.5,0.2c-20.6,0-41.3-0.1-61.9,0.4
	c-5.2,0.1-9.8,0-10.7,6.1c-0.2,1.4-0.2,2.7-0.2,4.1c0,6.4,0,12.9,0.1,19.4c0.1,18.9,0.2,37.8,0.4,56.7c0,5.6,0.1,11.1,0.1,16.7
	c-0.1,2.7,0.2,5.3,0.7,7.9c1,4.5,4.8,4,8.8,4.1c14,0.2,28,0.4,42,0.4c23,0,46,0,69,0h116c23.2,0,46.6,0.5,69.8-0.2
	c2.1-0.1,4.1-0.2,6.2-0.6c4-0.6,5.1-1.7,6.2-6c0-0.1,0-0.2,0-0.3c1.1-12.4,0.3-25.2,0.4-37.6c0.1-16.7,0.2-33.3,0.3-50
	C520.9,85.6,520.9,84.2,520.9,82.9L520.9,82.9z M515.9,179c-2,0.9-5,0.6-7.2,0.7H244.8c-7.3,0-14.5,0.1-21.8-0.1
	c-3.9-0.1-7.7-0.3-11.5-0.3c-3.5-0.1-6.7,0.4-7.3-3.8c-0.3-2.3-0.4-4.6-0.4-6.9c-0.1-30.4-0.5-60.8-0.4-91.3
	c-0.1-1.4-0.1-2.9,0.2-4.3c1.5-5.3,7.6-4.2,12-4.2c3.8-0.1,7.6-0.2,11.4-0.3h4l26.9-0.1c33.3-0.1,66.7-0.1,100-0.2
	c35.4-0.1,70.9-0.1,106.3-0.1h35.4c3.2,0,6.4,0,9.6,0.1h2.6c1.2,0.1,2.3,0.2,3.5,0.5c3.3,0.9,3.3,2.7,3.5,5.8
	c0.8,12.2,0.4,24.6,0.4,36.8c0,17.5,0,35-0.1,52.6c0,3.5,0.2,7.1-0.1,10.6C518.1,177,517.2,178.4,515.9,179L515.9,179z M188.7,162.2
	c0-9.9-0.1-19.7-0.2-29.6c-0.1-19.3-0.2-38.7-0.4-58c0-1.2,0-2.4-0.1-3.6c0-0.1,0-0.3,0-0.4c-1.7-5.9-12-3.9-16.9-3.9h-105
	c-2.9,0-5.9,0.1-8.8,0.3c-4.8,0.3-6,2.4-6,7.1c-0.2,14.5-0.2,29-0.3,43.4c-0.1,18.1-0.5,36.2-0.4,54.3c0,2.6-0.5,5.7,0.6,8
	c1.4,3,5.5,2.8,8.4,2.8c6.5,0.1,13,0.1,19.5,0.1c21.8,0.1,43.5,0.3,65.3,0.4c6.7,0,13.4,0.2,20.1,0.1c3,0,6-0.2,9.1-0.1
	c4.7,0.1,13.4,1.2,14.9-4.8C189.6,173.5,188.8,167.2,188.7,162.2L188.7,162.2z M186.7,111.2c0,18.8-0.1,37.5-0.1,56.3v5.7
	c0.1,1.1,0,2.2-0.1,3.4c-1.4,6.1-9.1,4.5-14.1,4.4s-9.9,0.1-14.8,0.1l-57.9-0.3l-28.1-0.2c-4.2,0-8.9,0.6-13.1-0.1
	c-4.9-0.8-5.6-4.6-5.6-8.7v-7.4c0-8.9,0.1-17.7,0.2-26.6c0.1-18.7,0.2-37.5,0.3-56.2V76v-1.8c0-1.9,0.5-4.1,2.3-4.9
	c1.3-0.6,3.7-0.3,5.1-0.3c4.3-0.2,8.6-0.1,13-0.1c33.2,0,66.4,0,99.6-0.1c3,0,12-1.3,13.3,2.4C187.7,84.3,186.7,98,186.7,111.2
	L186.7,111.2z"/>
<path class="st3" d="M296.4,289.5c-1,1.2-1.8,2.4-2.6,3.7c-0.6,1.1-1.3,2.1-2,3.1c1.1-7.7,0.2-16.2,0.2-23.9
	c0.1-19.1,0.1-38.1,0.1-57.2c0-42.3-0.1-84.7-0.4-127.1c0-9.5,0-19-0.3-28.5c1.2-0.1,2.3-0.6,3.1-1.5c1.5-1.8,1-5.6-0.9-7
	c-0.1-0.1-0.2-0.1-0.3-0.1c-1.4-1.5-4.3-1.1-5.7,0.3c-1.8,1.7-2.1,5.5-0.1,7.2c0.8,0.6,1.7,1,2.7,1.1c-0.6,26,0,52.1,0.1,78.1
	c0.1,42.6,0.2,85.2,0,127.8c0,7.4-0.1,14.9-0.2,22.3c0,2.4,0.2,5.3,0,7.8c-0.6-0.9-1.2-2-1.5-2.3c-0.7-1.2-1.6-2.4-2.6-3.5
	c-0.2-0.2-0.6-0.3-0.8-0.1c-0.2,0.2-0.3,0.4-0.2,0.6c0.6,2,2.1,3.8,3.3,5.5c0.6,0.9,1.4,3.1,2.7,3.3s1.9-1.5,2.4-2.3
	c1.5-2.1,3-4.2,4.3-6.4C298.1,289.8,297,288.8,296.4,289.5L296.4,289.5z M288.9,52.2c1.4-1,2.6-0.4,3.9,0.2c0.8,1.1,1.5,3.4,0.8,4.6
	c-1.1,1.8-4.2,1.6-5.4,0.1C287.1,55.6,287.4,53.5,288.9,52.2z"/>
<path class="st3" d="M637.5,122.8c-2.1-1.4-4.2-3-6.4-4.3c-0.8-0.4-1.7,0.7-1,1.3c1.2,1,2.4,1.8,3.7,2.6c0.5,0.3,2.3,1.3,3.1,2
	c-4.8-0.6-10.6,0-15.3,0c-14.7-0.1-29.3,0-44,0c-47.2,0.1-94.5,0.2-141.8,0.4c-56.8,0.2-113.7,0.5-170.5,0.8
	c-49.2,0.2-98.3,0.5-147.5,0.8c-16.2,0.1-32.4,0.2-48.7,0.3c-5,0-10,0.1-15,0.1c-2.5,0-6.4-0.3-8.8,0.1c-0.1,0-0.2,0-0.3,0
	c-0.1-1.2-0.6-2.3-1.5-3.1c-1.8-1.5-5.6-1-7,0.9c-0.1,0.1-0.1,0.2-0.1,0.3c-1.5,1.4-1.1,4.3,0.3,5.7c1.7,1.8,5.5,2.1,7.2,0.1
	c0.6-0.8,1-1.7,1.2-2.7c19.2,0.1,39.5-0.1,58.7-0.1c46.8-0.2,93.6-0.5,140.4-0.7c56.8-0.3,113.6-0.5,170.4-0.7
	c49.4-0.2,98.9-0.3,148.3-0.4c24.4,0,48.8-0.2,73.1,0.1c-0.8,0.5-1.7,1-2,1.3c-1.2,0.7-2.4,1.6-3.5,2.6c-0.2,0.2-0.3,0.6-0.1,0.8
	s0.4,0.3,0.6,0.2c2-0.6,3.8-2.1,5.5-3.3c0.9-0.6,3.2-1.4,3.3-2.7S638.2,123.4,637.5,122.8L637.5,122.8z M42.4,130.1
	c-1.6,1.1-3.7,0.8-4.9-0.7c-1-1.4-0.4-2.6,0.2-3.9c1.1-0.8,3.4-1.5,4.6-0.8C44,125.8,43.9,128.9,42.4,130.1z"/>
<path class="st4" d="M538.9,59c1.2-0.1,2.4-0.1,3.6-0.1c1.2,0.2,2.4,0,3.5-0.4c0.4-0.1,0.6-0.6,0.5-1s-0.5-0.6-0.9-0.5
	c-1.3,0.2-2.6,0.2-3.9,0.2c-1.1,0-2.1,0.2-3.1,0.7C538.1,58.1,538.3,59,538.9,59L538.9,59z M549.6,58.6c1.7,0.1,3.5-0.1,5.3,0
	c1.1,0.1,1.1-1.7,0-1.7c-1.8-0.1-3.6,0-5.4,0.4c-0.3,0.1-0.5,0.5-0.4,0.8C549.1,58.4,549.4,58.6,549.6,58.6L549.6,58.6z M559.4,58.3
	c1.8,0.1,3.7,0.1,5.5,0c0.5-0.1,0.8-0.5,0.8-0.9s-0.4-0.7-0.8-0.8c-1.9-0.1-3.8,0.1-5.7,0.4C558.4,57.1,558.7,58.2,559.4,58.3
	L559.4,58.3z M538.9,191.3c1.3,0,2.7-0.1,4-0.2c0.9-0.1,2.4,0.1,3.3-0.3c0.4-0.2,0.5-0.7,0.2-1.1c-0.1-0.2-0.3-0.3-0.4-0.3
	c-0.9-0.4-2.5,0.1-3.5,0.2c-1.3,0-2.6,0.2-3.9,0.7C538,190.5,538.3,191.3,538.9,191.3L538.9,191.3z M549.6,191
	c1.7,0.1,3.5-0.1,5.3,0.1c1.1,0.1,1.1-1.7,0-1.7c-1.8-0.1-3.6,0-5.4,0.4c-0.3,0.1-0.5,0.5-0.4,0.8C549.1,190.8,549.3,191,549.6,191z
	 M559.4,191.1c1.8,0.1,3.7,0.1,5.5,0c0.5-0.1,0.8-0.5,0.8-0.9s-0.4-0.7-0.8-0.8c-1.9-0.1-3.8,0.1-5.7,0.4
	C558.4,189.9,558.7,191,559.4,191.1L559.4,191.1z M533,198.8c0,1.4,0,2.7,0.1,4.1c0,0.9-0.2,2.4,0.3,3.2c0.2,0.4,0.7,0.5,1.1,0.3
	c0.2-0.1,0.3-0.3,0.3-0.4c0.4-0.9-0.1-2.4-0.1-3.4c0-1.3-0.2-2.7-0.6-3.9c-0.1-0.3-0.4-0.5-0.7-0.4C533.2,198.4,533,198.6,533,198.8
	L533,198.8z M533.3,209.6c-0.1,1.8,0,3.5-0.1,5.3c-0.1,1.1,1.7,1.1,1.7,0c0.1-1.8,0-3.6-0.3-5.4c-0.1-0.3-0.4-0.5-0.8-0.5
	C533.5,209,533.3,209.3,533.3,209.6z M533.6,219.2c-0.2,1.9-0.2,3.8-0.1,5.7c0,0.5,0.4,0.9,0.8,0.9c0.5,0,0.9-0.4,0.9-0.9
	c0.1-1.9,0-3.8-0.3-5.7C534.7,218.6,533.6,218.5,533.6,219.2L533.6,219.2z M42.1,198.8c0,1.4,0,2.7,0.1,4.1c0,0.9-0.2,2.4,0.3,3.2
	c0.2,0.4,0.7,0.5,1.1,0.3c0.2-0.1,0.3-0.3,0.4-0.4c0.3-0.9-0.1-2.4-0.1-3.4c0-1.3-0.2-2.7-0.6-3.9C43,198.2,42.1,198.2,42.1,198.8
	L42.1,198.8z M42.3,209.6c-0.1,1.8,0,3.5-0.1,5.3c-0.1,1.1,1.7,1.1,1.7,0c0.1-1.8,0-3.6-0.3-5.4c-0.1-0.3-0.5-0.5-0.8-0.4
	C42.5,209.1,42.4,209.3,42.3,209.6z M42.7,219.2c-0.2,1.9-0.2,3.8-0.1,5.7c0.1,0.5,0.5,0.8,0.9,0.8s0.7-0.4,0.8-0.8
	c0.1-1.9,0-3.8-0.3-5.7C43.8,218.6,42.7,218.5,42.7,219.2z"/>
<g class="st9">
	<path d="M75,172.2c-0.5,0.5-1,1-1.6,1.3s-1.2,0.5-1.6,0.5s-0.8-0.1-1-0.4c-0.2-0.3-0.4-0.6-0.4-1.1c0-0.7,0.2-1.4,0.7-2.2
		s1.2-1.5,2.1-2.1s1.7-0.9,2.4-0.9c0.4,0,0.7,0.1,1,0.3c0.1,0.1,0.1,0.1,0.2,0.1c0.1,0.1,0.2,0.2,0.3,0.4c0.1,0.2,0.1,0.3,0.1,0.5
		c0,0.1-0.1,0.3-0.2,0.8c-0.2,0.5-0.3,0.9-0.3,1.3c-0.1,0.4-0.2,1.5-0.4,3.2c-0.2,1.5-0.6,2.6-1.2,3.2c-0.7,0.7-1.4,1-2.2,1
		c-0.8,0-1.6-0.3-2.4-0.8c-0.8-0.6-1.2-1-1.2-1.4c0-0.3,0.2-0.5,0.5-0.5c0.1,0,0.4,0.1,0.7,0.4c1,0.6,1.8,1,2.5,1c0.5,0,1-0.3,1.3-1
		S74.8,173.9,75,172.2z M75.1,168.6c-0.3,0-0.7,0.2-1.2,0.6c-0.5,0.4-1,0.9-1.4,1.5s-0.6,1.2-0.6,1.6c0,0.2,0.1,0.3,0.2,0.3
		c0.5,0,1.1-0.2,1.6-0.7s1-1,1.3-1.5c0.3-0.6,0.5-1,0.5-1.3c0-0.1,0-0.3-0.1-0.4C75.3,168.7,75.2,168.6,75.1,168.6z"/>
	<path d="M79.6,171l0.1-0.2c0.5-1,1.1-1.9,1.7-2.5s1.2-1,1.7-1c0.4,0,0.8,0.1,1.1,0.4c0.3,0.2,0.4,0.5,0.4,0.8c0,0.2,0,0.4-0.1,0.5
		s-0.2,0.2-0.4,0.2c-0.3,0-0.5-0.1-0.7-0.3c-0.2-0.1-0.3-0.2-0.4-0.2c-0.3,0-0.8,0.5-1.6,1.5c-0.7,1-1.2,2.1-1.3,3.3
		c0,0.4-0.2,0.6-0.3,0.7s-0.4,0.2-0.7,0.2c-0.3,0-0.5-0.2-0.6-0.5s-0.2-0.9-0.2-1.6c0-0.3,0-0.7,0-1.3c0-0.5,0.1-1.1,0.1-1.8
		c0-0.2,0-0.3,0-0.4c0-0.4,0.1-0.7,0.1-0.9s0.2-0.3,0.3-0.4s0.4-0.2,0.6-0.2s0.4,0.1,0.5,0.2c0.1,0.1,0.2,0.3,0.2,0.4
		c0,0.2-0.1,0.6-0.3,1.2c-0.1,0.2-0.1,0.5-0.2,0.8L79.6,171z"/>
	<path d="M85.2,169.9L85.2,169.9c0.1-0.8,0.2-1.2,0.2-1.3c0-0.3,0.1-0.6,0.2-0.8s0.3-0.3,0.6-0.3c0.3,0,0.5,0.1,0.7,0.2
		c0.2,0.1,0.2,0.3,0.2,0.5s-0.1,0.5-0.2,1v0.1c-0.2,0.8-0.4,1.5-0.4,2s-0.1,0.9-0.1,1.3c0,0.3,0,0.6,0.1,1c0,0.1,0,0.1,0,0.2
		c0,0.1-0.1,0.2-0.3,0.4c-0.2,0.2-0.4,0.2-0.6,0.2c-0.6,0-0.8-0.4-0.8-1.3c0-0.7,0.1-1.6,0.3-2.6C85.2,170.3,85.2,170.1,85.2,169.9z
		 M88.3,164.7c0,0.3-0.1,0.6-0.4,0.8s-0.5,0.3-0.7,0.3c-0.3,0-0.5-0.1-0.7-0.3s-0.3-0.4-0.3-0.6c0-0.3,0.1-0.6,0.3-0.7
		s0.5-0.3,0.8-0.3s0.5,0.1,0.7,0.3C88.2,164.2,88.3,164.4,88.3,164.7z"/>
	<path d="M93,172c-1.1,1.6-2.2,2.3-3.3,2.3c-0.4,0-0.8-0.2-1.1-0.5s-0.4-0.8-0.4-1.3c0-1.1,0.5-2.2,1.4-3.3s1.8-1.6,2.7-1.6
		c0.5,0,0.9,0.1,1.1,0.4c0.3-1.4,0.5-2.3,0.6-2.6c0.1-0.6,0.2-1.1,0.3-1.3s0.2-0.4,0.4-0.5s0.3-0.2,0.5-0.2s0.4,0.1,0.5,0.3
		s0.2,0.4,0.2,0.7c0,0.1-0.1,0.5-0.3,1c-0.3,0.9-0.6,2-0.8,3.3c-0.3,1.3-0.4,2.3-0.4,3.1c0,0.7,0.2,1.1,0.5,1.1c0.2,0,0.3,0,0.5-0.1
		s0.3-0.1,0.4-0.1c0.2,0,0.3,0.1,0.3,0.4c0,0.3-0.2,0.6-0.6,0.9c-0.4,0.3-0.8,0.4-1.2,0.4c-0.4,0-0.7-0.2-0.9-0.7
		C93,173.1,92.9,172.6,93,172z M92.3,168.7c-0.6,0-1.1,0.4-1.7,1.3c-0.6,0.8-0.9,1.6-0.9,2.3c0,0.4,0.2,0.6,0.5,0.6
		c0.5,0,1.1-0.5,1.8-1.4c0.7-0.9,1.1-1.6,1.1-2.2c0-0.2-0.1-0.3-0.2-0.4S92.5,168.7,92.3,168.7z"/>
	<path d="M102.7,169.9L102.7,169.9c0.1-0.8,0.2-1.2,0.2-1.3c0-0.3,0.1-0.6,0.2-0.8s0.3-0.3,0.6-0.3c0.3,0,0.5,0.1,0.7,0.2
		c0.2,0.1,0.2,0.3,0.2,0.5s-0.1,0.5-0.2,1v0.1c-0.2,0.8-0.4,1.5-0.4,2s-0.1,0.9-0.1,1.3c0,0.3,0,0.6,0.1,1c0,0.1,0,0.1,0,0.2
		c0,0.1-0.1,0.2-0.3,0.4c-0.2,0.2-0.4,0.2-0.6,0.2c-0.6,0-0.8-0.4-0.8-1.3c0-0.7,0.1-1.6,0.3-2.6
		C102.7,170.3,102.7,170.1,102.7,169.9z M105.8,164.7c0,0.3-0.1,0.6-0.4,0.8s-0.5,0.3-0.7,0.3c-0.3,0-0.5-0.1-0.7-0.3
		s-0.3-0.4-0.3-0.6c0-0.3,0.1-0.6,0.3-0.7s0.5-0.3,0.8-0.3s0.5,0.1,0.7,0.3C105.7,164.2,105.8,164.4,105.8,164.7z"/>
	<path d="M108.6,168.9c0,0-0.2,0.5-0.4,1.4c-0.2,0.9-0.3,1.5-0.3,1.7c0,0.3,0,0.6,0.1,0.7c0.1,0.1,0.2,0.2,0.4,0.2
		c0.2,0,0.5,0,0.7-0.1s0.5-0.3,0.9-0.6c0.2-0.2,0.4-0.3,0.6-0.3c0.1,0,0.2,0,0.3,0.1c0.1,0.1,0.1,0.2,0.1,0.2c0,0.4-0.3,0.8-0.9,1.3
		s-1.2,0.7-1.9,0.7c-0.6,0-1-0.2-1.3-0.5s-0.4-0.8-0.4-1.4c0-0.6,0.2-1.7,0.6-3.4c-0.3,0-0.5,0-0.6,0h-0.1c-0.2,0-0.4-0.1-0.6-0.2
		c-0.2-0.1-0.3-0.3-0.3-0.6c0-0.4,0.2-0.5,0.6-0.5l1.4-0.1c0.2-0.5,0.4-1.2,0.6-2c0.1-0.5,0.4-0.8,0.8-0.8c0.2,0,0.4,0.1,0.5,0.2
		s0.2,0.3,0.2,0.5c0,0.1-0.2,0.7-0.5,2c1.3-0.1,2.1-0.2,2.2-0.2c0.2,0,0.4,0,0.4,0.1s0.1,0.2,0.1,0.4c0,0.4-0.3,0.6-1,0.7
		L108.6,168.9z"/>
	<path d="M117.8,171.9c0,0.4-0.4,1-1.1,1.6s-1.6,0.9-2.5,0.9c-0.7,0-1.3-0.2-1.7-0.7c-0.4-0.5-0.6-1.1-0.6-1.9
		c0-1.2,0.4-2.3,1.3-3.3c0.8-1,1.7-1.6,2.7-1.6c0.5,0,0.9,0.2,1.1,0.5c0.3,0.3,0.4,0.7,0.4,1.1c0,0.7-0.4,1.4-1.1,2.1
		c-0.7,0.7-1.6,1.1-2.7,1.4c-0.1,0-0.2,0.1-0.2,0.2c0,0.2,0.1,0.4,0.3,0.6c0.2,0.2,0.4,0.3,0.7,0.3c0.9,0,1.7-0.4,2.5-1.3
		c0.2-0.2,0.3-0.3,0.5-0.3C117.6,171.5,117.8,171.6,117.8,171.9z M113.5,170.8c0.7-0.1,1.3-0.4,1.8-0.9c0.5-0.4,0.8-0.8,0.8-1.2
		c0-0.1,0-0.3-0.1-0.4c-0.1-0.1-0.2-0.1-0.3-0.1c-0.4,0-0.8,0.3-1.2,0.8C113.9,169.6,113.6,170.2,113.5,170.8z"/>
	<path d="M120.5,173.7c-0.1,0.4-0.3,0.7-0.7,0.7c-0.6,0-0.8-0.4-0.8-1.2c0-1.3,0.1-2.4,0.2-3.3c0.1-0.7,0.2-1.4,0.2-2.1
		c0-0.2,0.1-0.3,0.2-0.4s0.3-0.2,0.4-0.2c0.6,0,1,0.4,1,1.2c0,0.3-0.1,0.9-0.3,1.9c-0.1,0.6-0.2,1.1-0.2,1.3c1.2-2.7,2.3-4,3.3-4
		c0.4,0,0.7,0.2,0.9,0.5c0.2,0.3,0.4,1,0.4,2.1c0,1,0.1,1.5,0.2,1.5s0.3-0.5,0.8-1.4c0.5-1.1,0.9-1.7,1.3-2.1
		c0.4-0.3,0.7-0.5,1.1-0.5c0.5,0,0.8,0.2,1,0.6s0.4,1.1,0.4,2c0.1,0.8,0.1,1.3,0.3,1.7c0.1,0.4,0.3,0.6,0.6,0.8
		c0.2,0.1,0.3,0.3,0.3,0.5s-0.1,0.4-0.4,0.5c-0.2,0.2-0.5,0.3-0.7,0.3c-0.4,0-0.8-0.2-1-0.6c-0.2-0.4-0.4-1.3-0.5-2.6
		c0-0.6-0.1-1-0.1-1.2c-0.1-0.2-0.1-0.3-0.2-0.3c-0.1,0-0.2,0.2-0.4,0.5s-0.5,0.9-0.9,1.8c-0.4,0.8-0.7,1.4-1,1.7s-0.6,0.5-0.9,0.5
		c-0.2,0-0.5-0.1-0.7-0.3s-0.4-1-0.4-2.3c0-1.2-0.1-1.8-0.2-1.8c-0.2,0-0.6,0.5-1.3,1.6C121.3,172,120.8,172.9,120.5,173.7z"/>
</g>
<g class="st9">
	<path d="M225.6,171c-0.5,0.5-1,1-1.6,1.3s-1.2,0.5-1.6,0.5c-0.4,0-0.8-0.1-1-0.4c-0.2-0.3-0.4-0.6-0.4-1.1c0-0.7,0.2-1.4,0.7-2.2
		s1.2-1.5,2.1-2.1c0.9-0.6,1.7-0.9,2.4-0.9c0.4,0,0.7,0.1,1,0.3c0.1,0.1,0.1,0.1,0.2,0.1c0.1,0.1,0.2,0.2,0.3,0.4s0.1,0.3,0.1,0.5
		c0,0.1-0.1,0.3-0.2,0.8c-0.2,0.5-0.3,0.9-0.3,1.3c-0.1,0.4-0.2,1.5-0.4,3.2c-0.2,1.5-0.6,2.6-1.2,3.2c-0.7,0.7-1.4,1-2.2,1
		s-1.6-0.3-2.4-0.8c-0.8-0.6-1.2-1-1.2-1.4c0-0.3,0.2-0.5,0.5-0.5c0.1,0,0.4,0.1,0.7,0.4c1,0.6,1.8,1,2.5,1c0.5,0,1-0.3,1.3-1
		S225.3,172.7,225.6,171z M225.7,167.4c-0.3,0-0.7,0.2-1.2,0.6c-0.5,0.4-1,0.9-1.4,1.5s-0.6,1.2-0.6,1.6c0,0.2,0.1,0.3,0.2,0.3
		c0.5,0,1.1-0.2,1.6-0.7s1-1,1.3-1.5c0.3-0.6,0.5-1,0.5-1.3c0-0.1,0-0.3-0.1-0.4C225.9,167.5,225.8,167.4,225.7,167.4z"/>
	<path d="M230.2,169.8l0.1-0.2c0.5-1,1.1-1.9,1.7-2.5c0.6-0.6,1.2-1,1.7-1c0.4,0,0.8,0.1,1.1,0.4c0.3,0.2,0.4,0.5,0.4,0.8
		c0,0.2,0,0.4-0.1,0.5s-0.2,0.2-0.4,0.2c-0.3,0-0.5-0.1-0.7-0.3c-0.2-0.1-0.3-0.2-0.4-0.2c-0.3,0-0.8,0.5-1.6,1.5
		c-0.7,1-1.2,2.1-1.3,3.3c0,0.4-0.2,0.6-0.3,0.7s-0.4,0.2-0.7,0.2s-0.5-0.2-0.6-0.5s-0.2-0.9-0.2-1.6c0-0.3,0-0.7,0-1.3
		c0-0.5,0.1-1.1,0.1-1.8c0-0.2,0-0.3,0-0.4c0-0.4,0.1-0.7,0.1-0.9s0.2-0.3,0.3-0.4s0.4-0.2,0.6-0.2c0.2,0,0.4,0.1,0.5,0.2
		c0.1,0.1,0.2,0.3,0.2,0.4c0,0.2-0.1,0.6-0.3,1.2c-0.1,0.2-0.1,0.5-0.2,0.8L230.2,169.8z"/>
	<path d="M235.8,168.7L235.8,168.7c0.1-0.8,0.2-1.2,0.2-1.3c0-0.3,0.1-0.6,0.2-0.8c0.1-0.2,0.3-0.3,0.6-0.3s0.5,0.1,0.7,0.2
		c0.2,0.1,0.2,0.3,0.2,0.5s-0.1,0.5-0.2,1v0.1c-0.2,0.8-0.4,1.5-0.4,2s-0.1,0.9-0.1,1.3c0,0.3,0,0.6,0.1,1c0,0.1,0,0.1,0,0.2
		c0,0.1-0.1,0.2-0.3,0.4s-0.4,0.2-0.6,0.2c-0.6,0-0.8-0.4-0.8-1.3c0-0.7,0.1-1.6,0.3-2.6C235.7,169.1,235.8,168.9,235.8,168.7z
		 M238.9,163.5c0,0.3-0.1,0.6-0.4,0.8s-0.5,0.3-0.7,0.3c-0.3,0-0.5-0.1-0.7-0.3s-0.3-0.4-0.3-0.6c0-0.3,0.1-0.6,0.3-0.7
		s0.5-0.3,0.8-0.3s0.5,0.1,0.7,0.3C238.8,163,238.9,163.2,238.9,163.5z"/>
	<path d="M243.6,170.8c-1.1,1.6-2.2,2.3-3.3,2.3c-0.4,0-0.8-0.2-1.1-0.5s-0.4-0.8-0.4-1.3c0-1.1,0.5-2.2,1.4-3.3s1.8-1.6,2.7-1.6
		c0.5,0,0.9,0.1,1.1,0.4c0.3-1.4,0.5-2.3,0.6-2.6c0.1-0.6,0.2-1.1,0.3-1.3s0.2-0.4,0.4-0.5s0.3-0.2,0.5-0.2s0.4,0.1,0.5,0.3
		s0.2,0.4,0.2,0.7c0,0.1-0.1,0.5-0.3,1c-0.3,0.9-0.6,2-0.8,3.3c-0.3,1.3-0.4,2.3-0.4,3.1c0,0.7,0.2,1.1,0.5,1.1c0.2,0,0.3,0,0.5-0.1
		s0.3-0.1,0.4-0.1c0.2,0,0.3,0.1,0.3,0.4c0,0.3-0.2,0.6-0.6,0.9c-0.4,0.3-0.8,0.4-1.2,0.4s-0.7-0.2-0.9-0.7
		C243.6,172,243.5,171.4,243.6,170.8z M242.9,167.5c-0.6,0-1.1,0.4-1.7,1.3c-0.6,0.8-0.9,1.6-0.9,2.3c0,0.4,0.2,0.6,0.5,0.6
		c0.5,0,1.1-0.5,1.8-1.4s1.1-1.6,1.1-2.2c0-0.2-0.1-0.3-0.2-0.4S243.1,167.5,242.9,167.5z"/>
	<path d="M253.3,168.7L253.3,168.7c0.1-0.8,0.2-1.2,0.2-1.3c0-0.3,0.1-0.6,0.2-0.8c0.1-0.2,0.3-0.3,0.6-0.3s0.5,0.1,0.7,0.2
		c0.2,0.1,0.2,0.3,0.2,0.5s-0.1,0.5-0.2,1v0.1c-0.2,0.8-0.4,1.5-0.4,2s-0.1,0.9-0.1,1.3c0,0.3,0,0.6,0.1,1c0,0.1,0,0.1,0,0.2
		c0,0.1-0.1,0.2-0.3,0.4s-0.4,0.2-0.6,0.2c-0.6,0-0.8-0.4-0.8-1.3c0-0.7,0.1-1.6,0.3-2.6C253.2,169.1,253.3,168.9,253.3,168.7z
		 M256.4,163.5c0,0.3-0.1,0.6-0.4,0.8s-0.5,0.3-0.7,0.3c-0.3,0-0.5-0.1-0.7-0.3s-0.3-0.4-0.3-0.6c0-0.3,0.1-0.6,0.3-0.7
		s0.5-0.3,0.8-0.3s0.5,0.1,0.7,0.3C256.3,163,256.4,163.2,256.4,163.5z"/>
	<path d="M259.2,167.7c0,0-0.2,0.5-0.4,1.4c-0.2,0.9-0.3,1.5-0.3,1.7c0,0.3,0,0.6,0.1,0.7c0.1,0.1,0.2,0.2,0.4,0.2
		c0.2,0,0.5,0,0.7-0.1s0.5-0.3,0.9-0.6c0.2-0.2,0.4-0.3,0.6-0.3c0.1,0,0.2,0,0.3,0.1c0.1,0.1,0.1,0.2,0.1,0.2c0,0.4-0.3,0.8-0.9,1.3
		s-1.2,0.7-1.9,0.7c-0.6,0-1-0.2-1.3-0.5s-0.4-0.8-0.4-1.4c0-0.6,0.2-1.7,0.6-3.4c-0.3,0-0.5,0-0.6,0H257c-0.2,0-0.4-0.1-0.6-0.2
		c-0.2-0.1-0.3-0.3-0.3-0.6c0-0.4,0.2-0.5,0.6-0.5l1.4-0.1c0.2-0.5,0.4-1.2,0.6-2c0.1-0.5,0.4-0.8,0.8-0.8c0.2,0,0.4,0.1,0.5,0.2
		s0.2,0.3,0.2,0.5c0,0.1-0.2,0.7-0.5,2c1.3-0.1,2.1-0.2,2.2-0.2c0.2,0,0.4,0,0.4,0.1s0.1,0.2,0.1,0.4c0,0.4-0.3,0.6-1,0.7
		L259.2,167.7z"/>
	<path d="M268.3,170.7c0,0.4-0.4,1-1.1,1.6s-1.6,0.9-2.5,0.9c-0.7,0-1.3-0.2-1.7-0.7c-0.4-0.5-0.6-1.1-0.6-1.9
		c0-1.2,0.4-2.3,1.3-3.3c0.8-1,1.7-1.6,2.7-1.6c0.5,0,0.9,0.2,1.1,0.5c0.3,0.3,0.4,0.7,0.4,1.1c0,0.7-0.4,1.4-1.1,2.1
		c-0.7,0.7-1.6,1.1-2.7,1.4c-0.1,0-0.2,0.1-0.2,0.2c0,0.2,0.1,0.4,0.3,0.6c0.2,0.2,0.4,0.3,0.7,0.3c0.9,0,1.7-0.4,2.5-1.3
		c0.2-0.2,0.3-0.3,0.5-0.3C268.2,170.3,268.3,170.4,268.3,170.7z M264.1,169.6c0.7-0.1,1.3-0.4,1.8-0.9c0.5-0.4,0.8-0.8,0.8-1.2
		c0-0.1,0-0.3-0.1-0.4c-0.1-0.1-0.2-0.1-0.3-0.1c-0.4,0-0.8,0.3-1.2,0.8C264.5,168.4,264.2,169,264.1,169.6z"/>
	<path d="M271.1,172.5c-0.1,0.4-0.3,0.7-0.7,0.7c-0.6,0-0.8-0.4-0.8-1.2c0-1.3,0.1-2.4,0.2-3.3c0.1-0.7,0.2-1.4,0.2-2.1
		c0-0.2,0.1-0.3,0.2-0.4s0.3-0.2,0.4-0.2c0.6,0,1,0.4,1,1.2c0,0.3-0.1,0.9-0.3,1.9c-0.1,0.6-0.2,1.1-0.2,1.3c1.2-2.7,2.3-4,3.3-4
		c0.4,0,0.7,0.2,0.9,0.5c0.2,0.3,0.4,1,0.4,2.1c0,1,0.1,1.5,0.2,1.5s0.3-0.5,0.8-1.4c0.5-1.1,0.9-1.7,1.3-2.1
		c0.4-0.3,0.7-0.5,1.1-0.5c0.5,0,0.8,0.2,1,0.6s0.4,1.1,0.4,2c0.1,0.8,0.1,1.3,0.3,1.7c0.1,0.4,0.3,0.6,0.6,0.8
		c0.2,0.1,0.3,0.3,0.3,0.5s-0.1,0.4-0.4,0.5c-0.2,0.2-0.5,0.3-0.7,0.3c-0.4,0-0.8-0.2-1-0.6c-0.2-0.4-0.4-1.3-0.5-2.6
		c0-0.6-0.1-1-0.1-1.2c-0.1-0.2-0.1-0.3-0.2-0.3s-0.2,0.2-0.4,0.5s-0.5,0.9-0.9,1.8c-0.4,0.8-0.7,1.4-1,1.7s-0.6,0.5-0.9,0.5
		c-0.2,0-0.5-0.1-0.7-0.3s-0.4-1-0.4-2.3c0-1.2-0.1-1.8-0.2-1.8c-0.2,0-0.6,0.5-1.3,1.6C271.9,170.8,271.4,171.7,271.1,172.5z"/>
</g>
<g class="st9">
	<path class="st1" d="M130.8,210.6c-0.5,0.6-1.1,1-1.8,1.4c-0.7,0.4-1.3,0.6-1.7,0.6c-0.5,0-0.9-0.1-1.1-0.4s-0.4-0.7-0.4-1.2
		c0-0.7,0.3-1.5,0.8-2.4s1.3-1.6,2.2-2.3c1-0.6,1.8-1,2.6-1c0.4,0,0.8,0.1,1.1,0.3c0.1,0.1,0.1,0.1,0.2,0.1c0.1,0.1,0.2,0.2,0.3,0.4
		c0.1,0.2,0.1,0.4,0.1,0.5c0,0.1-0.1,0.4-0.3,0.8c-0.2,0.5-0.3,1-0.4,1.4c-0.1,0.5-0.2,1.6-0.4,3.4c-0.2,1.6-0.6,2.8-1.3,3.5
		s-1.5,1.1-2.3,1.1c-0.9,0-1.8-0.3-2.6-0.9c-0.8-0.6-1.3-1.1-1.3-1.5c0-0.3,0.2-0.5,0.5-0.5c0.1,0,0.4,0.1,0.8,0.4
		c1,0.7,1.9,1,2.7,1c0.6,0,1-0.4,1.4-1.1C130.3,213.8,130.6,212.5,130.8,210.6z M131,206.8c-0.3,0-0.8,0.2-1.3,0.6
		c-0.5,0.4-1.1,0.9-1.5,1.6s-0.7,1.3-0.7,1.7c0,0.2,0.1,0.4,0.3,0.4c0.6,0,1.2-0.2,1.8-0.7c0.6-0.5,1-1,1.4-1.6s0.5-1.1,0.5-1.4
		c0-0.2,0-0.3-0.1-0.4S131.1,206.8,131,206.8z"/>
	<path class="st1" d="M135.8,209.3l0.1-0.2c0.6-1.1,1.1-2,1.8-2.7c0.6-0.7,1.3-1,1.9-1c0.5,0,0.8,0.1,1.1,0.4s0.4,0.6,0.4,0.9
		c0,0.2-0.1,0.4-0.2,0.6c-0.1,0.2-0.2,0.2-0.4,0.2c-0.3,0-0.5-0.1-0.8-0.3c-0.2-0.2-0.3-0.2-0.4-0.2c-0.3,0-0.9,0.5-1.7,1.6
		s-1.3,2.3-1.4,3.6c-0.1,0.4-0.2,0.7-0.3,0.8c-0.2,0.2-0.4,0.2-0.7,0.2c-0.3,0-0.5-0.2-0.7-0.5c-0.1-0.4-0.2-0.9-0.2-1.8
		c0-0.3,0-0.8,0-1.3c0-0.5,0.1-1.2,0.2-2c0-0.2,0-0.4,0-0.5c0-0.4,0.1-0.8,0.1-0.9c0.1-0.2,0.2-0.3,0.4-0.5s0.4-0.2,0.6-0.2
		c0.2,0,0.4,0.1,0.6,0.2s0.2,0.3,0.2,0.5c0,0.2-0.1,0.7-0.3,1.3c-0.1,0.2-0.1,0.5-0.2,0.8L135.8,209.3z"/>
	<path class="st1" d="M141.9,208.2L141.9,208.2c0.1-0.8,0.2-1.3,0.2-1.4c0-0.3,0.1-0.6,0.2-0.8s0.4-0.3,0.6-0.3
		c0.3,0,0.6,0.1,0.7,0.2s0.3,0.3,0.3,0.5s-0.1,0.6-0.3,1.1l0,0.2c-0.3,0.9-0.4,1.6-0.5,2.2s-0.1,1-0.1,1.3c0,0.3,0,0.6,0.1,1.1
		c0,0.1,0,0.2,0,0.2c0,0.1-0.1,0.2-0.3,0.4s-0.4,0.3-0.6,0.3c-0.6,0-0.9-0.5-0.9-1.4c0-0.8,0.1-1.7,0.3-2.8
		C141.8,208.6,141.8,208.4,141.9,208.2z M145.2,202.6c0,0.3-0.1,0.6-0.4,0.9c-0.3,0.2-0.5,0.4-0.8,0.4c-0.3,0-0.5-0.1-0.7-0.3
		s-0.3-0.5-0.3-0.7c0-0.3,0.1-0.6,0.3-0.8c0.2-0.2,0.5-0.3,0.9-0.3c0.3,0,0.6,0.1,0.7,0.3C145.1,202.1,145.2,202.3,145.2,202.6z"/>
	<path class="st1" d="M150.2,210.4c-1.2,1.7-2.4,2.5-3.6,2.5c-0.5,0-0.9-0.2-1.2-0.6c-0.3-0.4-0.4-0.9-0.4-1.5
		c0-1.2,0.5-2.4,1.5-3.5s2-1.8,3-1.8c0.6,0,1,0.2,1.2,0.5c0.3-1.5,0.5-2.4,0.6-2.8c0.1-0.7,0.3-1.2,0.3-1.4s0.2-0.4,0.4-0.5
		c0.2-0.1,0.3-0.2,0.5-0.2c0.2,0,0.4,0.1,0.5,0.3s0.2,0.4,0.2,0.7c0,0.1-0.1,0.5-0.3,1.1c-0.3,1-0.6,2.2-0.9,3.6s-0.4,2.5-0.4,3.3
		c0,0.8,0.2,1.2,0.5,1.2c0.2,0,0.4,0,0.6-0.1c0.2-0.1,0.3-0.1,0.4-0.1c0.2,0,0.3,0.1,0.3,0.4c0,0.3-0.2,0.6-0.7,0.9
		c-0.5,0.3-0.9,0.5-1.3,0.5c-0.4,0-0.8-0.2-1-0.7S150.2,211.1,150.2,210.4z M149.5,206.9c-0.6,0-1.2,0.5-1.9,1.4s-1,1.7-1,2.5
		c0,0.4,0.2,0.7,0.5,0.7c0.6,0,1.2-0.5,2-1.5s1.2-1.8,1.2-2.3c0-0.2-0.1-0.3-0.2-0.5C149.9,207,149.7,206.9,149.5,206.9z"/>
	<path class="st1" d="M162.2,213.1c-0.8,0-1.3-0.2-1.7-0.6s-0.6-1-0.6-1.7c0-1.1,0.5-2.4,1.4-3.7s1.9-2,2.7-2c0.4,0,0.8,0.2,1.1,0.6
		c0.3,0.4,0.5,0.9,0.5,1.3c0,0.4-0.1,0.7-0.2,0.9c-0.2,0.2-0.3,0.2-0.5,0.2c-0.4,0-0.7-0.3-0.8-0.9c-0.1-0.4-0.2-0.7-0.3-0.7
		c-0.4,0-0.8,0.5-1.4,1.5s-0.9,1.9-0.9,2.7c0,0.6,0.3,0.9,1,0.9c0.7,0,1.5-0.3,2.2-0.8c0.4-0.3,0.6-0.4,0.8-0.4
		c0.3,0,0.4,0.1,0.4,0.4c0,0.4-0.4,0.8-1.2,1.4C164,212.8,163.1,213.1,162.2,213.1z"/>
	<path class="st1" d="M173.8,209.2c-0.3,1.1-0.9,2-1.7,2.7c-0.9,0.7-1.7,1.1-2.6,1.1c-0.7,0-1.2-0.2-1.7-0.7
		c-0.4-0.5-0.7-1.1-0.7-1.8c0-1.2,0.4-2.3,1.2-3.5s1.8-1.7,2.9-1.7c0.8,0,1.4,0.3,1.9,0.9c0.5,0.6,0.7,1.3,0.7,2.1
		C173.9,208.6,173.8,208.9,173.8,209.2L173.8,209.2z M170.2,207.1c-0.3,0.3-0.6,0.7-0.9,1.4s-0.5,1.2-0.5,1.9c0,0.4,0.1,0.7,0.2,0.9
		s0.3,0.4,0.6,0.4c0.6,0,1.2-0.3,1.8-1s0.9-1.4,0.9-2.3c0-0.5-0.1-0.9-0.3-1.2c-0.2-0.3-0.5-0.5-0.8-0.5
		C170.8,206.7,170.5,206.9,170.2,207.1L170.2,207.1z"/>
	<path class="st1" d="M180.9,211.7c-0.2-0.4-0.4-1.2-0.5-2.3c-0.1-1.2-0.3-1.8-0.7-1.8c-0.3,0-0.9,0.6-1.7,1.8
		c-0.8,1.2-1.3,2.1-1.5,2.7c0,0.2-0.1,0.3-0.2,0.4s-0.2,0.2-0.3,0.2c-0.7,0-1-0.3-1-1c0-0.2,0.1-0.7,0.2-1.5c0.2-1,0.3-2.2,0.3-3.6
		c0-0.2,0.1-0.4,0.3-0.7c0.2-0.2,0.4-0.4,0.6-0.4c0.3,0,0.5,0.1,0.6,0.2s0.2,0.5,0.2,1.1c0,0.4-0.1,1.3-0.4,2.5
		c1-2.3,2.1-3.5,3.3-3.5c1.1,0,1.7,0.8,1.9,2.5c0.2,1.7,0.4,2.5,0.6,2.5c0.1,0,0.2,0,0.4-0.1c0.2-0.1,0.3-0.1,0.4-0.1
		c0.2,0,0.3,0.1,0.3,0.4c0,0.2-0.2,0.5-0.5,0.7c-0.3,0.3-0.7,0.4-1.1,0.4C181.5,212.4,181.1,212.2,180.9,211.7L180.9,211.7z"/>
	<path class="st1" d="M187.2,207.2c0,0-0.2,0.5-0.4,1.5s-0.3,1.6-0.3,1.8c0,0.4,0,0.6,0.1,0.8c0.1,0.1,0.2,0.2,0.4,0.2
		c0.3,0,0.5,0,0.7-0.1c0.2-0.1,0.5-0.3,0.9-0.6c0.2-0.2,0.4-0.3,0.6-0.3c0.1,0,0.2,0,0.3,0.1c0.1,0.1,0.1,0.2,0.1,0.3
		c0,0.4-0.3,0.9-1,1.4c-0.6,0.5-1.3,0.8-2.1,0.8c-0.6,0-1.1-0.2-1.4-0.5s-0.5-0.9-0.5-1.5c0-0.6,0.2-1.8,0.7-3.7c-0.3,0-0.5,0-0.6,0
		h-0.1c-0.2,0-0.4-0.1-0.6-0.2s-0.3-0.4-0.3-0.7c0-0.4,0.2-0.6,0.6-0.6l1.5-0.1c0.2-0.6,0.4-1.3,0.6-2.2c0.1-0.6,0.4-0.8,0.9-0.8
		c0.3,0,0.4,0.1,0.6,0.2c0.1,0.2,0.2,0.3,0.2,0.5c0,0.1-0.2,0.8-0.6,2.1c1.4-0.1,2.2-0.2,2.4-0.2c0.2,0,0.4,0,0.5,0.1
		c0.1,0.1,0.1,0.2,0.1,0.4c0,0.4-0.3,0.7-1,0.8L187.2,207.2z"/>
	<path class="st1" d="M195.7,210.4c-1.2,1.6-2.4,2.4-3.5,2.4c-0.4,0-0.8-0.2-1.1-0.5s-0.4-0.7-0.4-1.2c0-1.2,0.5-2.5,1.6-3.9
		c1.1-1.4,2.2-2,3.3-2c0.6,0,0.9,0.3,1.1,0.8c0.5,0,0.8,0.2,0.8,0.6c0,0.2-0.1,0.5-0.2,1c-0.2,0.9-0.3,1.7-0.3,2.2
		c0,0.6,0,1,0.1,1.2s0.1,0.4,0.2,0.5s0.1,0.2,0.3,0.2c0.2,0.1,0.3,0.2,0.3,0.4c0,0.2-0.1,0.4-0.4,0.6s-0.5,0.2-0.7,0.2
		C196,213,195.6,212.1,195.7,210.4z M195.2,206.6c-0.5,0-1.1,0.5-1.8,1.5c-0.7,1-1.1,1.9-1.1,2.6c0,0.4,0.1,0.6,0.2,0.6
		c0.5,0,1.2-0.5,2-1.4c0.8-1,1.2-1.8,1.2-2.5c0-0.2-0.1-0.4-0.2-0.5C195.5,206.7,195.4,206.6,195.2,206.6z"/>
	<path class="st1" d="M199.6,208.2L199.6,208.2c0.1-0.8,0.2-1.3,0.2-1.4c0-0.3,0.1-0.6,0.2-0.8s0.4-0.3,0.6-0.3
		c0.3,0,0.6,0.1,0.7,0.2s0.3,0.3,0.3,0.5s-0.1,0.6-0.3,1.1l0,0.2c-0.3,0.9-0.4,1.6-0.5,2.2s-0.1,1-0.1,1.3c0,0.3,0,0.6,0.1,1.1
		c0,0.1,0,0.2,0,0.2c0,0.1-0.1,0.2-0.3,0.4s-0.4,0.3-0.6,0.3c-0.6,0-0.9-0.5-0.9-1.4c0-0.8,0.1-1.7,0.3-2.8
		C199.6,208.6,199.6,208.4,199.6,208.2z M202.9,202.6c0,0.3-0.1,0.6-0.4,0.9c-0.3,0.2-0.5,0.4-0.8,0.4c-0.3,0-0.5-0.1-0.7-0.3
		s-0.3-0.5-0.3-0.7c0-0.3,0.1-0.6,0.3-0.8c0.2-0.2,0.5-0.3,0.9-0.3c0.3,0,0.6,0.1,0.7,0.3C202.9,202.1,202.9,202.3,202.9,202.6z"/>
	<path class="st1" d="M208.9,211.7c-0.2-0.4-0.4-1.2-0.5-2.3c-0.1-1.2-0.3-1.8-0.7-1.8c-0.3,0-0.9,0.6-1.7,1.8
		c-0.8,1.2-1.3,2.1-1.5,2.7c0,0.2-0.1,0.3-0.2,0.4s-0.2,0.2-0.3,0.2c-0.7,0-1-0.3-1-1c0-0.2,0.1-0.7,0.2-1.5c0.2-1,0.3-2.2,0.3-3.6
		c0-0.2,0.1-0.4,0.3-0.7c0.2-0.2,0.4-0.4,0.6-0.4c0.3,0,0.5,0.1,0.6,0.2s0.2,0.5,0.2,1.1c0,0.4-0.1,1.3-0.4,2.5
		c1-2.3,2.1-3.5,3.3-3.5c1.1,0,1.7,0.8,1.9,2.5c0.2,1.7,0.4,2.5,0.6,2.5c0.1,0,0.2,0,0.4-0.1c0.2-0.1,0.3-0.1,0.4-0.1
		c0.2,0,0.3,0.1,0.3,0.4c0,0.2-0.2,0.5-0.5,0.7c-0.3,0.3-0.7,0.4-1.1,0.4C209.5,212.4,209.1,212.2,208.9,211.7L208.9,211.7z"/>
	<path class="st1" d="M218.6,210.4c0,0.5-0.4,1-1.2,1.7c-0.8,0.7-1.7,1-2.7,1c-0.8,0-1.4-0.2-1.8-0.7c-0.4-0.5-0.7-1.2-0.7-2
		c0-1.3,0.5-2.5,1.4-3.6s1.9-1.7,2.9-1.7c0.5,0,0.9,0.2,1.2,0.5s0.5,0.7,0.5,1.2c0,0.8-0.4,1.5-1.1,2.3c-0.8,0.7-1.7,1.2-2.9,1.5
		c-0.1,0-0.2,0.1-0.2,0.2c0,0.2,0.1,0.4,0.3,0.6c0.2,0.2,0.5,0.3,0.8,0.3c0.9,0,1.8-0.5,2.7-1.4c0.2-0.2,0.3-0.3,0.5-0.3
		C218.4,209.9,218.6,210.1,218.6,210.4z M214,209.1c0.7-0.1,1.4-0.5,1.9-0.9s0.8-0.9,0.8-1.3c0-0.2,0-0.3-0.1-0.4
		c-0.1-0.1-0.2-0.2-0.3-0.2c-0.4,0-0.8,0.3-1.3,0.9S214.1,208.5,214,209.1z"/>
	<path class="st1" d="M221.4,209.3l0.1-0.2c0.6-1.1,1.1-2,1.8-2.7c0.6-0.7,1.3-1,1.9-1c0.5,0,0.8,0.1,1.1,0.4s0.4,0.6,0.4,0.9
		c0,0.2-0.1,0.4-0.2,0.6c-0.1,0.2-0.2,0.2-0.4,0.2c-0.3,0-0.5-0.1-0.8-0.3c-0.2-0.2-0.3-0.2-0.4-0.2c-0.3,0-0.9,0.5-1.7,1.6
		s-1.3,2.3-1.4,3.6c-0.1,0.4-0.2,0.7-0.3,0.8c-0.2,0.2-0.4,0.2-0.7,0.2c-0.3,0-0.5-0.2-0.7-0.5c-0.1-0.4-0.2-0.9-0.2-1.8
		c0-0.3,0-0.8,0-1.3c0-0.5,0.1-1.2,0.2-2c0-0.2,0-0.4,0-0.5c0-0.4,0.1-0.8,0.1-0.9c0.1-0.2,0.2-0.3,0.4-0.5s0.4-0.2,0.6-0.2
		c0.2,0,0.4,0.1,0.6,0.2s0.2,0.3,0.2,0.5c0,0.2-0.1,0.7-0.3,1.3c-0.1,0.2-0.1,0.5-0.2,0.8L221.4,209.3z"/>
</g>
</svg>
